<svg viewBox="0 0 21 21" fill="none" xmlns="http://www.w3.org/2000/svg">
<path d="M18.5 10L12.0312 3.4375C11.75 3.15625 11.3125 3.15625 11.0312 3.4375C10.75 3.71875 10.75 4.15625 11.0312 4.4375L16.2812 9.78125H3C2.625 9.78125 2.3125 10.0937 2.3125 10.4688C2.3125 10.8438 2.625 11.1875 3 11.1875H16.3437L11.0312 16.5938C10.75 16.875 10.75 17.3125 11.0312 17.5938C11.1562 17.7188 11.3437 17.7812 11.5312 17.7812C11.7187 17.7812 11.9062 17.7188 12.0312 17.5625L18.5 11C18.7812 10.7187 18.7812 10.2812 18.5 10Z" fill="currentColor"/>
</svg>
