<?xml version="1.0" standalone="no"?>
<!DOCTYPE svg PUBLIC "-//W3C//DTD SVG 20010904//EN"
 "http://www.w3.org/TR/2001/REC-SVG-20010904/DTD/svg10.dtd">
<svg version="1.0" xmlns="http://www.w3.org/2000/svg"
 viewBox="0 0 512.000000 512.000000"
 preserveAspectRatio="xMidYMid meet">
<metadata>
Created by potrace 1.16, written by Peter Selinger 2001-2019
</metadata>
<g transform="translate(0.000000,512.000000) scale(0.100000,-0.100000)"
fill="currentColor" stroke="none">
<path d="M2380 4964 c-176 -32 -291 -69 -424 -137 -349 -178 -602 -509 -681
-891 -8 -42 -15 -89 -15 -105 0 -21 -10 -41 -34 -64 -67 -67 -71 -83 -71 -272
0 -168 0 -171 28 -217 54 -93 99 -108 319 -108 l168 0 17 -42 c64 -164 174
-329 309 -465 l102 -103 -229 0 c-268 0 -342 -11 -465 -70 -45 -22 -103 -59
-130 -84 l-49 -45 1335 0 1335 0 -49 45 c-27 25 -85 62 -130 84 -123 59 -197
70 -465 70 l-229 0 102 103 c56 56 125 137 154 179 55 80 140 239 160 296 l11
32 169 0 c221 0 265 15 319 108 28 46 28 49 28 217 0 188 -2 198 -69 268 -25
26 -36 48 -36 68 0 94 -60 291 -133 433 -175 343 -476 578 -871 678 -64 16
-120 21 -266 23 -102 2 -196 1 -210 -1z m373 -169 c162 -28 311 -87 452 -180
80 -52 261 -234 314 -315 83 -129 153 -302 176 -437 l7 -43 -90 0 -89 0 -6 43
c-18 124 -108 316 -205 438 -130 162 -316 283 -517 335 -143 37 -327 37 -469
0 -322 -84 -572 -316 -684 -637 -17 -47 -33 -107 -37 -132 l-7 -47 -90 0 -90
0 7 43 c23 135 93 308 176 437 55 84 235 264 319 319 134 87 286 148 442 176
100 18 288 18 391 0z m543 -781 c102 -220 108 -464 19 -730 -69 -206 -168
-370 -309 -509 -98 -97 -167 -142 -274 -183 -57 -22 -83 -26 -172 -26 -117 1
-188 21 -297 85 -59 35 -221 188 -263 248 l-24 34 35 -7 c95 -19 205 -36 234
-36 30 0 36 -6 63 -54 89 -156 321 -177 442 -40 45 52 60 93 60 167 0 112 -66
207 -169 242 -67 23 -156 19 -216 -9 -52 -24 -118 -88 -130 -125 -7 -24 -9
-24 -110 -10 -95 13 -213 42 -282 70 l-52 21 -31 86 c-84 232 -100 443 -50
633 9 33 15 38 58 49 139 36 322 18 487 -47 80 -32 103 -37 201 -41 90 -3 127
0 192 16 149 38 293 109 452 224 87 63 79 66 136 -58z"/>
<path d="M740 2201 c-88 -27 -175 -105 -212 -189 -12 -26 -23 -76 -25 -112 -3
-36 16 -405 41 -821 25 -416 46 -759 46 -762 0 -3 -90 -7 -201 -9 -197 -3
-201 -3 -220 -27 -25 -31 -25 -85 1 -111 20 -20 33 -20 2390 -20 2357 0 2370
0 2390 20 26 26 26 80 1 111 -19 24 -23 24 -220 27 -111 2 -201 6 -201 9 0 3
21 346 46 762 25 416 44 785 41 821 -2 36 -13 86 -25 112 -27 62 -95 134 -157
166 l-50 27 -1810 2 c-995 1 -1821 -2 -1835 -6z m1932 -641 c381 -117 388
-642 10 -769 -277 -94 -561 146 -520 439 21 154 123 274 277 327 82 28 150 29
233 3z"/>
</g>
</svg>
