<svg viewBox="0 0 36 17" fill="none" xmlns="http://www.w3.org/2000/svg">
<path d="M9.73459 0.492049C9.91439 0.187137 10.242 0 10.596 0H18.2538C19.0267 0 19.5074 0.839445 19.1163 1.50609L10.3146 16.5061C10.135 16.8121 9.80683 17 9.45208 17H1.75061C0.976713 17 0.496123 16.1587 0.889225 15.492L9.73459 0.492049Z" fill="currentColor"/>
<path d="M25.7346 0.492049C25.9144 0.187137 26.242 0 26.596 0H34.2538C35.0267 0 35.5074 0.839445 35.1163 1.50609L26.3146 16.5061C26.135 16.8121 25.8068 17 25.4521 17H17.7506C16.9767 17 16.4961 16.1587 16.8892 15.492L25.7346 0.492049Z" fill="currentColor"/>
</svg>
