<?xml version="1.0" standalone="no"?>
<!DOCTYPE svg PUBLIC "-//W3C//DTD SVG 20010904//EN"
 "http://www.w3.org/TR/2001/REC-SVG-20010904/DTD/svg10.dtd">
<svg version="1.0" xmlns="http://www.w3.org/2000/svg"
 viewBox="0 0 512.000000 512.000000"
 preserveAspectRatio="xMidYMid meet">
<metadata>
Created by potrace 1.16, written by Peter Selinger 2001-2019
</metadata>
<g transform="translate(0.000000,512.000000) scale(0.100000,-0.100000)"
fill="currentColor" stroke="none">
<path d="M2378 5114 c-5 -4 -8 -193 -8 -419 0 -458 1 -468 65 -561 20 -29 60
-68 88 -88 95 -65 108 -66 725 -66 l553 0 -4 -497 c-4 -530 -4 -534 -58 -703
-31 -99 -111 -256 -178 -348 l-61 -83 28 -10 c15 -5 151 -58 302 -116 l275
-105 61 66 c121 130 184 296 184 486 0 174 -45 313 -146 451 -42 57 -45 65
-40 104 52 342 3 685 -139 981 -149 310 -438 601 -746 751 -121 60 -228 97
-365 129 -103 24 -146 28 -324 32 -113 2 -208 1 -212 -4z"/>
<path d="M1983 5020 c-227 -89 -392 -197 -569 -374 -290 -290 -440 -616 -474
-1028 -10 -122 -8 -183 11 -350 l11 -87 -40 -53 c-106 -142 -152 -278 -152
-453 0 -195 61 -360 184 -491 l61 -66 280 107 c154 59 290 111 302 116 22 8
21 11 -33 86 -105 146 -163 269 -210 443 l-28 105 -4 502 -3 501 243 4 c238 3
244 4 299 29 107 51 180 138 205 248 19 79 20 791 2 790 -7 0 -45 -13 -85 -29z"/>
<path d="M2157 3870 c-61 -62 -172 -126 -267 -155 -30 -9 -106 -19 -167 -22
l-113 -6 0 -306 c0 -338 6 -391 54 -534 46 -134 114 -243 216 -347 131 -134
266 -213 449 -262 102 -28 342 -30 445 -5 183 46 329 129 461 262 107 109 174
215 221 352 48 143 54 196 54 535 l0 307 -447 3 c-436 4 -450 4 -518 27 -100
32 -186 83 -259 152 -35 32 -65 58 -67 58 -2 -1 -30 -27 -62 -59z m143 -625
l0 -145 -165 0 -165 0 0 145 0 145 165 0 165 0 0 -145z m850 0 l0 -145 -165 0
-165 0 0 145 0 145 165 0 165 0 0 -145z"/>
<path d="M1447 1976 c-476 -184 -515 -206 -602 -351 -57 -96 -75 -168 -75
-306 l0 -119 420 0 420 0 0 -135 c0 -74 2 -135 4 -135 2 0 177 72 390 160 212
88 407 165 433 171 70 15 190 13 264 -6 185 -48 340 -197 400 -385 27 -85 29
-221 5 -305 -40 -136 -126 -255 -241 -331 -27 -18 -156 -76 -285 -130 -129
-53 -237 -98 -239 -100 -2 -2 260 -4 582 -4 l587 0 0 600 0 600 420 0 420 0 0
123 c0 100 -5 134 -23 188 -44 128 -126 232 -231 294 -39 23 -817 325 -836
325 -6 0 -49 -22 -96 -49 -100 -58 -220 -104 -349 -134 -72 -17 -122 -21 -255
-21 -133 0 -183 4 -255 21 -129 30 -249 76 -349 134 -47 27 -92 49 -99 48 -6
0 -191 -69 -410 -153z"/>
<path d="M1920 744 c-311 -129 -573 -237 -582 -240 -17 -5 -18 9 -18 195 l0
201 -275 0 -275 0 0 -450 0 -450 403 0 403 0 540 223 c296 123 558 233 580
245 124 63 175 233 111 365 -49 99 -131 147 -249 146 -72 0 -81 -3 -638 -235z"/>
<path d="M3800 450 l0 -450 275 0 275 0 0 450 0 450 -275 0 -275 0 0 -450z"/>
</g>
</svg>
