<?xml version="1.0" standalone="no"?>
<!DOCTYPE svg PUBLIC "-//W3C//DTD SVG 20010904//EN"
 "http://www.w3.org/TR/2001/REC-SVG-20010904/DTD/svg10.dtd">
<svg version="1.0" xmlns="http://www.w3.org/2000/svg"
 viewBox="0 0 512.000000 512.000000"
 preserveAspectRatio="xMidYMid meet">
<metadata>
Created by potrace 1.16, written by Peter Selinger 2001-2019
</metadata>
<g transform="translate(0.000000,512.000000) scale(0.100000,-0.100000)"
fill="currentColor" stroke="none">
<path d="M2176 5101 c-58 -38 -66 -63 -66 -203 l0 -127 -42 -11 c-151 -40
-290 -94 -427 -166 l-104 -55 -81 80 c-45 44 -94 85 -109 90 -41 16 -93 13
-130 -5 -44 -22 -464 -440 -488 -486 -21 -41 -24 -92 -8 -135 5 -15 46 -64 89
-108 l80 -80 -69 -136 c-42 -85 -87 -194 -117 -288 l-49 -151 -125 0 c-137 0
-163 -9 -201 -66 -18 -27 -19 -53 -19 -384 0 -331 1 -357 19 -384 38 -57 64
-66 202 -66 l126 0 27 -100 c55 -195 163 -436 221 -490 l27 -25 280 -3 c269
-3 281 -2 267 15 -7 10 -32 41 -55 68 -176 214 -304 507 -345 793 -15 109 -6
392 16 492 145 657 703 1146 1358 1188 281 18 524 -30 772 -153 408 -203 705
-590 802 -1045 26 -121 26 -449 0 -570 -52 -243 -157 -474 -305 -668 l-93
-123 280 3 280 3 31 30 c58 56 166 301 220 503 l22 82 127 0 c138 0 164 8 202
66 18 27 19 53 19 384 0 331 -1 357 -19 384 -38 58 -64 66 -202 66 l-126 0
-24 83 c-34 122 -93 269 -155 386 l-55 104 80 81 c44 45 85 94 90 109 14 36
14 88 0 124 -14 37 -444 469 -491 494 -41 21 -92 24 -135 8 -15 -5 -64 -46
-108 -89 l-80 -80 -135 68 c-122 61 -283 123 -397 152 l-43 11 0 127 c0 140
-8 165 -66 203 -27 18 -53 19 -384 19 -331 0 -357 -1 -384 -19z"/>
<path d="M2337 4054 c-474 -86 -860 -465 -956 -941 -26 -124 -28 -330 -6 -456
19 -110 66 -250 120 -357 43 -84 76 -134 208 -306 81 -107 178 -298 208 -411
l22 -83 224 0 c122 0 223 3 223 8 0 4 -59 304 -130 667 -72 363 -130 677 -130
699 0 136 189 190 260 74 12 -20 46 -174 97 -429 42 -220 80 -399 83 -399 3 0
41 179 83 399 51 255 85 409 97 429 37 60 122 82 187 49 41 -22 73 -75 73
-123 0 -22 -58 -336 -130 -699 -71 -363 -130 -663 -130 -667 0 -5 101 -8 225
-8 l224 0 11 43 c40 155 122 325 218 451 126 166 160 216 200 293 164 317 189
699 67 1015 -153 395 -499 681 -909 753 -110 19 -332 18 -439 -1z"/>
<path d="M1960 1088 c0 -97 3 -120 24 -163 34 -73 69 -110 138 -144 l61 -31
376 0 c373 0 376 0 426 24 73 34 110 69 144 138 29 57 31 68 31 175 l0 113
-600 0 -600 0 0 -112z"/>
<path d="M2260 338 c0 -97 3 -120 24 -163 34 -73 69 -110 138 -144 52 -27 72
-31 137 -31 127 0 217 54 270 162 29 57 31 68 31 175 l0 113 -300 0 -300 0 0
-112z"/>
</g>
</svg>
