<?xml version="1.0" standalone="no"?>
<!DOCTYPE svg PUBLIC "-//W3C//DTD SVG 20010904//EN"
 "http://www.w3.org/TR/2001/REC-SVG-20010904/DTD/svg10.dtd">
<svg version="1.0" xmlns="http://www.w3.org/2000/svg"
viewBox="0 0 512.000000 512.000000"
 preserveAspectRatio="xMidYMid meet">
<metadata>
Created by potrace 1.16, written by Peter Selinger 2001-2019
</metadata>
<g transform="translate(0.000000,512.000000) scale(0.100000,-0.100000)"
fill="currentColor" stroke="none">
<path d="M1878 4690 c-273 -49 -476 -243 -564 -537 -23 -75 -27 -112 -31 -248
-6 -190 14 -307 78 -470 165 -424 593 -839 1086 -1055 116 -51 121 -51 275 23
484 231 877 622 1037 1032 64 163 84 280 78 470 -5 185 -28 281 -99 418 -52
99 -170 227 -259 280 -109 64 -205 90 -339 90 -76 1 -139 -5 -185 -16 -88 -22
-251 -102 -330 -162 -33 -25 -62 -45 -65 -45 -3 0 -32 20 -65 45 -78 59 -242
140 -325 160 -81 19 -230 27 -292 15z"/>
<path d="M704 2130 c-12 -4 -31 -21 -43 -36 -21 -27 -21 -27 -21 -709 0 -672
0 -683 20 -708 28 -35 76 -47 195 -47 128 0 170 12 195 53 19 31 20 56 20 707
0 742 3 702 -60 735 -32 17 -268 21 -306 5z"/>
<path d="M1280 1385 l0 -535 92 0 92 0 415 -156 c229 -86 472 -178 541 -204
69 -26 159 -53 200 -60 131 -22 282 1 402 60 33 16 308 198 611 403 304 205
591 399 639 430 152 101 208 183 208 308 -1 126 -68 228 -178 269 -105 40
-154 33 -670 -97 -257 -64 -468 -117 -470 -118 -2 -2 4 -20 12 -40 130 -309
-166 -645 -494 -561 -340 87 -527 142 -547 162 -51 51 -34 132 32 160 34 14
46 12 321 -62 307 -82 326 -84 402 -45 73 38 112 104 112 191 0 85 -52 172
-119 199 -14 6 -211 60 -438 121 l-412 110 -375 0 -376 0 0 -535z"/>
</g>
</svg>
