<svg id="svg" version="1.1" xmlns="http://www.w3.org/2000/svg" xmlns:xlink="http://www.w3.org/1999/xlink" viewBox="0, 0, 400,400"><g id="svgg"><path id="path0" d="M182.317 12.460 C 182.033 12.640,180.874 12.791,179.743 12.794 C 178.461 12.798,177.613 12.990,177.492 13.305 C 177.367 13.631,176.574 13.789,175.249 13.753 C 174.122 13.722,173.200 13.815,173.200 13.961 C 173.200 14.244,171.610 14.510,170.039 14.490 C 169.326 14.480,169.223 14.569,169.639 14.832 C 170.014 15.070,169.597 15.190,168.380 15.194 C 167.379 15.197,166.385 15.375,166.171 15.589 C 165.958 15.802,165.386 16.038,164.902 16.112 C 164.417 16.186,163.896 16.371,163.744 16.523 C 163.591 16.675,163.047 16.800,162.533 16.800 C 162.020 16.800,161.600 16.980,161.600 17.200 C 161.600 17.420,161.060 17.600,160.400 17.600 C 159.740 17.600,159.200 17.780,159.200 18.000 C 159.200 18.220,158.615 18.403,157.900 18.406 C 156.914 18.411,156.745 18.506,157.200 18.800 C 157.655 19.094,157.486 19.189,156.500 19.194 C 155.785 19.197,155.200 19.380,155.200 19.600 C 155.200 19.820,154.660 20.000,154.000 20.000 C 153.340 20.000,152.800 20.180,152.800 20.400 C 152.800 20.620,152.545 20.800,152.233 20.800 C 151.922 20.800,151.604 20.988,151.527 21.218 C 151.451 21.448,150.986 21.666,150.494 21.703 C 150.002 21.740,149.600 21.912,149.600 22.085 C 149.600 22.258,149.322 22.400,148.983 22.400 C 148.644 22.400,147.980 22.760,147.508 23.200 C 147.036 23.640,146.233 24.000,145.725 24.000 C 145.216 24.000,144.800 24.137,144.800 24.304 C 144.800 24.471,144.421 24.844,143.958 25.133 C 143.261 25.569,143.163 25.568,143.388 25.130 C 143.537 24.838,143.376 24.949,143.030 25.376 C 142.683 25.804,142.400 26.001,142.400 25.815 C 142.400 25.630,142.085 25.837,141.700 26.276 C 141.315 26.715,140.775 26.998,140.500 26.904 C 140.225 26.810,140.000 26.928,140.000 27.167 C 140.000 27.405,139.730 27.600,139.400 27.600 C 139.070 27.600,138.800 27.780,138.800 28.000 C 138.800 28.220,138.429 28.400,137.976 28.400 C 137.523 28.400,137.252 28.561,137.374 28.758 C 137.657 29.216,136.465 29.687,135.902 29.339 C 135.651 29.184,135.594 29.266,135.762 29.538 C 135.929 29.808,135.800 30.000,135.451 30.000 C 135.122 30.000,134.735 30.374,134.590 30.830 C 134.446 31.287,134.228 31.561,134.107 31.441 C 133.770 31.104,131.600 32.507,131.600 33.063 C 131.600 33.332,131.392 33.681,131.138 33.838 C 130.852 34.015,130.785 33.948,130.962 33.662 C 131.356 33.024,130.861 33.082,130.190 33.752 C 129.887 34.056,129.750 34.416,129.886 34.552 C 130.127 34.794,129.453 34.900,128.946 34.700 C 128.806 34.645,128.542 35.005,128.359 35.500 C 128.159 36.040,127.691 36.400,127.189 36.400 C 126.729 36.400,126.464 36.580,126.600 36.800 C 126.736 37.020,126.567 37.200,126.224 37.200 C 125.853 37.200,125.587 37.565,125.568 38.100 C 125.551 38.595,125.447 38.777,125.336 38.504 C 125.214 38.200,124.438 38.775,123.335 39.988 C 122.344 41.077,121.188 42.077,120.767 42.211 C 120.345 42.344,120.000 42.691,120.000 42.981 C 120.000 43.271,119.505 43.832,118.900 44.227 C 117.513 45.134,116.786 45.852,117.018 46.085 C 117.118 46.184,116.749 46.506,116.199 46.800 C 115.650 47.094,115.200 47.632,115.200 47.995 C 115.200 48.359,114.795 49.036,114.300 49.500 C 112.603 51.092,109.999 54.535,109.300 56.111 C 109.029 56.722,108.535 57.327,108.203 57.454 C 107.872 57.581,107.600 57.987,107.600 58.354 C 107.600 58.722,107.250 59.276,106.821 59.585 C 106.393 59.893,106.121 60.273,106.217 60.428 C 106.313 60.583,106.123 60.932,105.796 61.204 C 105.468 61.476,105.200 61.906,105.200 62.161 C 105.200 62.415,104.850 62.876,104.421 63.185 C 103.993 63.493,103.719 63.869,103.813 64.021 C 103.906 64.172,103.536 64.814,102.989 65.448 C 102.443 66.082,102.080 66.823,102.184 67.096 C 102.287 67.369,101.928 68.036,101.386 68.578 C 100.844 69.120,100.400 69.842,100.400 70.182 C 100.400 70.522,100.220 70.800,100.000 70.800 C 99.780 70.800,99.600 71.250,99.600 71.800 C 99.600 72.350,99.420 72.800,99.200 72.800 C 98.980 72.800,98.800 73.370,98.800 74.067 C 98.800 74.763,98.677 75.210,98.527 75.060 C 98.195 74.728,97.200 76.985,97.200 78.070 C 97.200 78.536,97.023 78.738,96.757 78.574 C 96.463 78.392,96.400 78.569,96.569 79.103 C 96.741 79.645,96.612 79.987,96.170 80.156 C 95.802 80.298,95.615 80.662,95.742 80.992 C 95.865 81.314,95.684 81.859,95.339 82.204 C 94.970 82.573,94.790 83.234,94.901 83.815 C 95.032 84.500,94.910 84.800,94.501 84.800 C 94.078 84.800,93.982 85.073,94.157 85.771 C 94.313 86.391,94.175 86.968,93.776 87.367 C 93.376 87.767,93.219 88.425,93.340 89.196 C 93.487 90.127,93.379 90.401,92.865 90.406 C 92.290 90.411,92.281 90.464,92.800 90.800 C 93.130 91.013,93.202 91.191,92.960 91.194 C 92.717 91.197,92.541 91.695,92.568 92.300 C 92.595 92.905,92.473 93.605,92.296 93.856 C 92.119 94.107,91.935 94.872,91.887 95.555 C 91.839 96.239,91.690 96.799,91.556 96.799 C 91.422 96.800,91.280 98.105,91.241 99.700 C 91.201 101.295,90.996 102.660,90.785 102.733 C 90.573 102.807,90.400 104.371,90.400 106.210 C 90.400 108.048,90.226 109.660,90.013 109.792 C 89.378 110.184,89.458 153.998,90.094 154.006 C 90.475 154.011,90.465 154.097,90.057 154.356 C 89.679 154.596,89.649 154.783,89.957 154.974 C 90.201 155.124,90.400 155.647,90.400 156.135 C 90.400 156.624,90.760 157.283,91.200 157.600 C 91.640 157.917,92.000 158.469,92.000 158.827 C 92.000 159.488,93.272 161.200,93.763 161.200 C 93.911 161.200,94.946 161.816,96.064 162.569 C 97.229 163.353,98.360 163.837,98.714 163.701 C 99.119 163.545,99.232 163.625,99.042 163.932 C 98.827 164.280,100.066 164.400,103.876 164.400 L 109.000 164.400 108.962 167.700 C 108.940 169.515,109.098 171.226,109.312 171.502 C 109.526 171.778,109.728 173.218,109.759 174.702 C 109.791 176.186,109.976 177.653,110.170 177.962 C 110.433 178.380,110.380 178.439,109.962 178.193 C 109.544 177.947,109.560 178.060,110.023 178.631 C 110.366 179.054,110.628 179.895,110.605 180.500 C 110.582 181.105,110.689 181.600,110.844 181.600 C 110.999 181.600,111.024 181.988,110.900 182.463 C 110.775 182.937,110.837 183.224,111.037 183.101 C 111.237 182.977,111.420 183.354,111.445 183.938 C 111.470 184.522,111.624 185.450,111.787 186.000 C 111.950 186.550,112.103 187.315,112.128 187.700 C 112.152 188.085,112.343 188.400,112.552 188.400 C 112.762 188.400,112.815 188.518,112.670 188.663 C 112.525 188.808,112.606 189.166,112.848 189.458 C 113.091 189.751,113.189 190.250,113.067 190.569 C 112.945 190.888,113.025 191.208,113.244 191.281 C 113.464 191.355,113.684 191.681,113.733 192.007 C 113.782 192.333,113.980 192.853,114.173 193.162 C 114.413 193.547,114.378 193.634,114.062 193.438 C 113.808 193.281,113.600 193.324,113.600 193.534 C 113.600 193.743,113.867 194.017,114.193 194.142 C 114.531 194.272,114.685 194.635,114.550 194.985 C 114.421 195.323,114.514 195.600,114.757 195.600 C 115.001 195.600,115.200 196.140,115.200 196.800 C 115.200 197.460,115.380 198.000,115.600 198.000 C 115.820 198.000,116.000 198.371,116.000 198.824 C 116.000 199.277,116.180 199.536,116.400 199.400 C 116.627 199.260,116.800 199.596,116.800 200.176 C 116.800 200.739,116.959 201.200,117.153 201.200 C 117.481 201.200,118.125 202.670,118.056 203.262 C 118.039 203.406,118.290 203.743,118.613 204.011 C 118.936 204.279,119.200 204.746,119.200 205.049 C 119.200 205.352,119.380 205.600,119.600 205.600 C 119.820 205.600,120.000 206.061,120.000 206.624 C 120.000 207.187,120.142 207.560,120.315 207.452 C 120.597 207.278,121.617 209.096,121.682 209.888 C 121.696 210.059,122.043 210.435,122.454 210.723 C 122.864 211.010,123.200 211.523,123.200 211.862 C 123.200 212.201,123.759 213.001,124.442 213.640 C 125.126 214.278,125.454 214.800,125.173 214.800 C 124.860 214.800,124.999 215.160,125.530 215.726 C 126.009 216.235,126.400 216.865,126.400 217.126 C 126.400 217.387,126.670 217.600,127.000 217.600 C 127.555 217.600,127.787 218.096,127.631 218.949 C 127.596 219.141,127.835 219.195,128.163 219.069 C 128.587 218.907,128.688 219.027,128.512 219.486 C 128.353 219.900,128.423 220.033,128.709 219.856 C 128.973 219.693,129.426 220.156,129.825 220.997 C 130.195 221.776,130.683 222.528,130.910 222.668 C 131.166 222.826,131.201 222.724,131.000 222.400 C 130.786 222.054,130.833 221.973,131.138 222.162 C 131.392 222.319,131.600 222.686,131.600 222.978 C 131.600 223.269,132.095 223.832,132.700 224.228 C 133.305 224.624,134.095 225.320,134.455 225.774 C 135.751 227.407,137.615 229.200,138.016 229.200 C 138.242 229.200,138.589 229.605,138.788 230.100 C 138.987 230.595,139.161 230.775,139.175 230.500 C 139.189 230.226,139.942 230.721,140.848 231.600 C 141.755 232.480,142.745 233.200,143.048 233.200 C 143.352 233.200,143.555 233.335,143.500 233.500 C 143.445 233.665,143.801 234.201,144.291 234.691 C 145.063 235.463,145.199 237.094,144.454 236.633 C 144.309 236.544,144.183 237.429,144.174 238.600 C 144.165 239.771,143.962 240.970,143.725 241.264 C 143.487 241.559,143.332 242.430,143.380 243.200 C 143.429 243.970,143.256 245.140,142.997 245.800 C 142.737 246.460,142.550 248.080,142.581 249.400 C 142.612 250.720,142.484 251.907,142.295 252.038 C 142.106 252.170,141.918 253.186,141.876 254.296 C 141.834 255.407,141.680 256.243,141.534 256.155 C 141.388 256.067,141.173 257.121,141.056 258.498 C 140.940 259.874,140.725 261.765,140.580 262.700 L 140.316 264.400 119.658 264.423 C 108.296 264.436,97.753 264.453,96.230 264.460 C 94.706 264.467,93.056 264.627,92.562 264.814 C 92.069 265.002,90.473 265.194,89.017 265.241 C 87.560 265.289,86.275 265.478,86.161 265.664 C 86.046 265.849,85.413 266.000,84.754 266.000 C 83.315 266.000,80.075 266.705,79.100 267.230 C 78.624 267.486,78.400 267.462,78.400 267.154 C 78.400 266.833,78.252 266.825,77.890 267.125 C 77.610 267.358,76.935 267.622,76.390 267.712 C 75.846 267.801,74.890 268.084,74.266 268.340 C 73.643 268.596,72.968 268.704,72.766 268.579 C 72.565 268.455,72.399 268.498,72.397 268.676 C 72.395 268.854,71.945 269.208,71.396 269.463 C 70.848 269.717,70.489 269.779,70.600 269.600 C 70.711 269.421,70.352 269.483,69.804 269.737 C 69.255 269.992,68.805 270.335,68.803 270.500 C 68.801 270.665,68.170 270.800,67.400 270.800 C 66.630 270.800,66.000 270.980,66.000 271.200 C 66.000 271.420,65.640 271.600,65.200 271.600 C 64.760 271.600,64.400 271.780,64.400 272.000 C 64.400 272.220,63.939 272.400,63.376 272.400 C 62.796 272.400,62.460 272.573,62.600 272.800 C 62.829 273.170,61.933 273.402,61.000 273.214 C 60.780 273.170,60.732 273.266,60.894 273.427 C 61.223 273.756,59.427 274.800,58.531 274.800 C 58.213 274.800,58.063 274.978,58.197 275.195 C 58.337 275.422,58.177 275.489,57.824 275.354 C 57.467 275.217,57.108 275.375,56.972 275.729 C 56.840 276.072,56.398 276.277,55.968 276.194 C 55.504 276.104,55.200 276.269,55.200 276.610 C 55.200 276.973,54.961 277.083,54.534 276.919 C 54.087 276.748,53.964 276.817,54.158 277.132 C 54.341 277.428,54.161 277.600,53.666 277.600 C 53.237 277.600,52.783 277.867,52.658 278.193 C 52.517 278.561,52.171 278.687,51.750 278.525 C 51.289 278.348,51.162 278.415,51.358 278.732 C 51.532 279.013,51.398 279.200,51.024 279.200 C 50.681 279.200,50.400 279.482,50.400 279.827 C 50.400 280.271,50.168 280.380,49.603 280.201 C 48.988 280.006,48.861 280.093,49.047 280.578 C 49.225 281.043,49.115 281.142,48.628 280.955 C 48.212 280.796,48.010 280.885,48.084 281.198 C 48.148 281.471,47.902 281.744,47.538 281.806 C 47.173 281.868,46.543 282.130,46.138 282.389 C 45.452 282.827,45.451 282.844,46.121 282.635 C 46.541 282.503,46.740 282.574,46.597 282.805 C 46.463 283.022,46.016 283.200,45.603 283.200 C 45.191 283.200,44.740 283.560,44.600 284.000 C 44.460 284.440,44.100 284.800,43.800 284.800 C 43.500 284.800,43.140 285.160,43.000 285.600 C 42.860 286.040,42.506 286.400,42.213 286.400 C 41.920 286.400,40.130 287.930,38.235 289.800 C 36.339 291.670,34.566 293.203,34.294 293.206 C 33.973 293.210,34.009 293.348,34.400 293.600 C 34.909 293.929,34.890 293.989,34.276 293.994 C 33.878 293.997,33.658 294.171,33.788 294.380 C 33.917 294.589,33.477 295.163,32.811 295.655 C 32.145 296.148,31.600 296.705,31.600 296.893 C 31.600 297.475,29.703 299.168,29.379 298.876 C 29.210 298.724,29.176 298.891,29.303 299.247 C 29.443 299.638,29.084 300.387,28.396 301.140 C 27.771 301.825,27.142 302.751,27.001 303.198 C 26.858 303.647,26.548 303.891,26.308 303.743 C 26.025 303.568,25.953 303.775,26.100 304.337 C 26.255 304.931,26.142 305.200,25.739 305.200 C 25.417 305.200,25.264 305.380,25.400 305.600 C 25.536 305.820,25.484 306.000,25.283 306.000 C 25.083 306.000,24.326 307.170,23.600 308.600 C 22.874 310.030,22.127 311.200,21.940 311.200 C 21.753 311.200,21.600 311.552,21.600 311.981 C 21.600 312.970,20.779 314.800,20.336 314.800 C 20.151 314.800,20.000 315.070,20.000 315.400 C 20.000 315.730,19.820 316.000,19.600 316.000 C 19.380 316.000,19.200 316.352,19.200 316.781 C 19.200 317.532,18.440 319.585,18.008 320.000 C 17.767 320.232,17.505 321.178,17.482 321.900 C 17.474 322.175,17.317 322.400,17.133 322.400 C 16.950 322.400,16.800 322.861,16.800 323.424 C 16.800 324.047,16.633 324.344,16.373 324.183 C 16.139 324.038,15.980 324.163,16.021 324.460 C 16.199 325.761,15.974 326.831,15.573 326.583 C 15.339 326.438,15.180 326.563,15.221 326.860 C 15.393 328.112,15.176 330.032,14.883 329.851 C 14.709 329.744,14.523 330.228,14.470 330.928 C 14.418 331.627,14.200 332.260,13.987 332.333 C 13.774 332.407,13.600 332.642,13.600 332.857 C 13.600 333.072,13.825 333.120,14.100 332.965 C 14.500 332.739,14.500 332.790,14.100 333.221 C 13.825 333.518,13.600 334.444,13.600 335.280 C 13.600 336.116,13.420 336.800,13.200 336.800 C 12.978 336.800,12.800 337.859,12.800 339.176 C 12.800 340.483,12.621 341.664,12.402 341.799 C 11.729 342.215,11.903 379.022,12.581 379.584 C 12.880 379.832,13.078 380.342,13.022 380.717 C 12.966 381.093,13.228 381.618,13.605 381.884 C 13.981 382.150,14.516 382.915,14.793 383.584 C 15.092 384.306,15.592 384.800,16.022 384.800 C 16.420 384.800,16.860 385.160,17.000 385.600 C 17.210 386.262,18.112 386.683,18.500 386.302 C 18.555 386.247,19.140 386.586,19.800 387.054 C 21.066 387.952,28.155 388.330,29.585 387.576 C 29.923 387.398,30.785 387.017,31.500 386.729 C 32.215 386.440,32.800 385.998,32.800 385.746 C 32.800 385.493,33.250 385.174,33.800 385.036 C 34.350 384.898,34.800 384.584,34.800 384.339 C 34.800 384.094,35.116 383.603,35.503 383.247 C 35.889 382.891,36.450 382.060,36.749 381.400 C 37.049 380.740,37.447 379.896,37.635 379.525 C 37.822 379.153,37.977 372.597,37.978 364.954 C 37.980 356.968,38.137 350.961,38.348 350.830 C 38.549 350.703,38.689 348.935,38.657 346.900 C 38.620 344.482,38.750 343.200,39.032 343.200 C 39.282 343.200,39.451 342.442,39.432 341.400 C 39.414 340.410,39.554 339.600,39.743 339.600 C 39.931 339.600,39.982 339.330,39.855 339.000 C 39.729 338.670,39.789 338.400,39.990 338.400 C 40.190 338.400,40.276 337.996,40.181 337.502 C 39.965 336.378,40.342 335.117,40.808 335.405 C 41.001 335.524,41.088 335.257,41.002 334.811 C 40.916 334.365,41.016 334.000,41.223 334.000 C 41.430 334.000,41.600 333.471,41.600 332.824 C 41.600 332.177,41.780 331.536,42.000 331.400 C 42.220 331.264,42.400 330.713,42.400 330.176 C 42.400 329.639,42.580 329.200,42.800 329.200 C 43.020 329.200,43.200 328.840,43.200 328.400 C 43.200 327.960,43.380 327.600,43.600 327.600 C 43.820 327.600,44.000 327.240,44.000 326.800 C 44.000 326.360,44.225 325.997,44.500 325.994 C 44.833 325.990,44.800 325.858,44.400 325.600 C 44.044 325.370,43.992 325.210,44.274 325.206 C 44.535 325.203,44.973 324.580,45.247 323.821 C 45.521 323.063,45.893 322.534,46.073 322.645 C 46.253 322.756,46.400 322.554,46.400 322.195 C 46.400 321.409,47.396 320.330,47.774 320.707 C 47.921 320.855,47.932 320.689,47.798 320.339 C 47.548 319.688,48.527 318.400,49.271 318.400 C 49.499 318.400,49.579 318.123,49.450 317.785 C 49.315 317.435,49.469 317.072,49.804 316.943 C 50.129 316.818,50.296 316.555,50.174 316.358 C 50.052 316.161,50.233 316.000,50.576 316.000 C 50.919 316.000,51.200 315.738,51.200 315.417 C 51.200 315.096,51.939 314.061,52.842 313.117 C 53.746 312.173,54.642 310.994,54.834 310.497 C 55.025 310.000,55.328 309.640,55.506 309.697 C 55.685 309.754,56.846 308.810,58.087 307.600 C 61.163 304.601,61.699 304.182,62.290 304.318 C 62.570 304.382,62.800 304.178,62.800 303.863 C 62.800 303.549,63.475 302.972,64.300 302.583 C 65.125 302.193,66.035 301.543,66.323 301.137 C 66.610 300.732,67.240 300.397,67.723 300.394 C 68.436 300.389,68.488 300.315,68.000 300.000 C 67.515 299.686,67.572 299.611,68.300 299.606 C 68.795 299.603,69.203 299.375,69.206 299.100 C 69.210 298.767,69.342 298.800,69.600 299.200 C 69.858 299.600,69.990 299.633,69.994 299.300 C 69.997 299.025,70.204 298.800,70.453 298.800 C 70.702 298.800,71.197 298.485,71.553 298.100 C 71.909 297.715,72.650 297.338,73.200 297.262 C 73.750 297.186,74.260 296.961,74.333 296.762 C 74.407 296.563,74.812 296.400,75.233 296.400 C 75.655 296.400,76.001 296.265,76.003 296.100 C 76.007 295.702,77.979 294.800,78.846 294.800 C 79.224 294.800,79.593 294.626,79.667 294.413 C 79.740 294.200,80.385 293.981,81.100 293.928 C 81.815 293.874,82.400 293.688,82.400 293.515 C 82.400 293.342,83.041 293.200,83.824 293.200 C 84.671 293.200,85.147 293.038,85.000 292.800 C 84.777 292.439,86.862 292.176,88.340 292.379 C 88.637 292.420,88.762 292.261,88.617 292.027 C 88.365 291.620,90.750 291.391,93.145 291.590 C 93.701 291.637,93.986 291.501,93.838 291.261 C 93.667 290.985,102.084 290.846,119.813 290.832 C 136.969 290.818,145.956 290.947,145.797 291.205 C 145.663 291.422,145.833 291.600,146.176 291.600 C 146.519 291.600,146.800 291.749,146.800 291.931 C 146.800 292.112,149.860 295.352,153.600 299.130 C 157.340 302.908,160.400 305.902,160.400 305.784 C 160.400 305.665,160.651 305.801,160.958 306.084 C 161.265 306.368,161.434 306.735,161.334 306.900 C 161.235 307.065,161.463 307.200,161.843 307.200 C 162.223 307.200,162.422 307.311,162.286 307.448 C 162.007 307.726,162.958 308.800,163.483 308.800 C 163.670 308.800,164.083 309.160,164.400 309.600 C 164.717 310.040,165.207 310.400,165.488 310.400 C 165.770 310.400,166.000 310.670,166.000 311.000 C 166.000 311.330,166.180 311.600,166.400 311.600 C 166.620 311.600,166.800 311.858,166.800 312.173 C 166.800 312.488,167.169 312.863,167.620 313.006 C 168.071 313.149,169.055 313.882,169.807 314.633 C 170.558 315.385,171.449 316.000,171.787 316.000 C 172.124 316.000,172.400 316.180,172.400 316.400 C 172.400 316.620,172.670 316.800,173.000 316.800 C 173.330 316.800,173.600 316.999,173.600 317.243 C 173.600 317.486,173.841 317.593,174.136 317.480 C 174.431 317.367,174.926 317.435,175.236 317.631 C 175.712 317.932,175.707 317.990,175.200 318.003 C 174.870 318.011,175.410 318.385,176.400 318.834 C 177.390 319.283,178.200 319.609,178.200 319.558 C 178.200 319.507,178.650 319.715,179.200 320.021 C 180.703 320.856,182.888 321.587,183.900 321.594 C 184.395 321.597,184.800 321.780,184.800 322.000 C 184.800 322.220,185.250 322.400,185.800 322.400 C 186.350 322.400,186.800 322.603,186.800 322.850 C 186.800 323.139,187.239 323.212,188.022 323.056 C 188.757 322.909,189.595 323.025,190.122 323.348 C 190.615 323.649,191.994 323.864,193.264 323.839 C 194.509 323.814,195.443 323.930,195.340 324.097 C 195.025 324.606,196.606 324.434,197.145 323.900 C 197.549 323.500,197.728 323.539,198.045 324.100 C 198.315 324.580,198.931 324.800,200.000 324.800 C 201.069 324.800,201.685 324.580,201.955 324.100 C 202.272 323.539,202.451 323.500,202.855 323.900 C 203.509 324.548,204.136 324.548,203.747 323.900 C 203.507 323.501,203.571 323.500,204.060 323.897 C 204.397 324.170,204.797 324.270,204.947 324.120 C 205.097 323.970,206.071 323.821,207.110 323.791 C 208.150 323.760,209.540 323.601,210.200 323.438 C 210.860 323.275,212.452 322.893,213.738 322.588 C 215.025 322.283,216.322 321.831,216.621 321.583 C 216.920 321.334,217.353 321.247,217.582 321.389 C 217.812 321.531,218.000 321.501,218.000 321.321 C 218.000 321.006,220.488 320.004,221.500 319.912 C 221.775 319.887,222.000 319.724,222.000 319.549 C 222.000 319.375,222.726 319.014,223.614 318.748 C 224.706 318.421,225.062 318.159,224.714 317.939 C 224.373 317.722,224.557 317.610,225.257 317.606 C 225.865 317.603,226.422 317.320,226.567 316.943 C 226.705 316.581,226.931 316.398,227.069 316.535 C 227.206 316.673,227.652 316.401,228.059 315.932 C 228.467 315.462,228.800 315.292,228.800 315.555 C 228.800 315.905,228.948 315.895,229.358 315.516 C 229.665 315.232,229.834 314.865,229.734 314.700 C 229.635 314.535,229.833 314.400,230.176 314.400 C 230.519 314.400,230.800 314.220,230.800 314.000 C 230.800 313.780,231.160 313.600,231.600 313.600 C 232.141 313.600,232.400 313.333,232.400 312.776 C 232.400 312.323,232.541 312.040,232.714 312.147 C 232.886 312.253,233.631 311.814,234.368 311.170 C 235.105 310.527,235.586 310.000,235.436 310.000 C 235.286 310.000,235.614 309.550,236.164 309.000 C 236.714 308.450,237.362 308.000,237.605 308.000 C 237.848 308.000,237.936 307.820,237.800 307.600 C 237.664 307.380,237.755 307.200,238.002 307.200 C 238.507 307.200,253.200 292.434,253.200 291.926 C 253.200 291.747,253.481 291.600,253.824 291.600 C 254.167 291.600,254.336 291.420,254.200 291.199 C 254.035 290.932,262.619 290.856,279.876 290.971 C 305.623 291.143,311.200 291.332,311.200 292.034 C 311.200 292.235,311.737 292.400,312.394 292.400 C 313.961 292.400,317.324 293.279,317.678 293.782 C 317.831 293.999,318.079 294.054,318.229 293.904 C 318.379 293.754,319.131 293.895,319.900 294.216 C 320.669 294.537,321.636 294.800,322.049 294.800 C 322.462 294.800,322.800 294.980,322.800 295.200 C 322.800 295.420,323.261 295.600,323.824 295.600 C 324.387 295.600,324.756 295.747,324.645 295.927 C 324.534 296.107,325.063 296.479,325.821 296.753 C 326.580 297.027,327.200 297.420,327.200 297.626 C 327.200 297.832,327.549 298.000,327.976 298.000 C 328.403 298.000,328.866 298.183,329.004 298.407 C 329.142 298.630,329.423 298.709,329.628 298.583 C 329.832 298.456,330.003 298.678,330.006 299.076 C 330.011 299.633,330.091 299.675,330.355 299.259 C 330.631 298.824,330.805 298.863,331.249 299.459 C 331.552 299.867,332.070 300.259,332.400 300.330 C 332.730 300.402,333.060 300.627,333.133 300.830 C 333.207 301.034,333.532 301.200,333.857 301.200 C 334.182 301.200,334.336 301.380,334.200 301.600 C 334.064 301.820,334.294 302.000,334.712 302.000 C 335.130 302.000,336.045 302.630,336.745 303.400 C 337.446 304.170,338.307 304.800,338.658 304.800 C 339.009 304.800,340.084 305.623,341.048 306.629 C 342.012 307.634,342.800 308.341,342.800 308.200 C 342.800 307.774,343.825 308.948,344.110 309.700 C 344.256 310.085,344.651 310.400,344.987 310.400 C 345.339 310.400,345.600 310.751,345.600 311.224 C 345.600 311.677,345.780 311.936,346.000 311.800 C 346.220 311.664,346.400 311.763,346.400 312.019 C 346.400 312.275,346.830 312.823,347.355 313.236 C 347.880 313.649,348.426 314.448,348.567 315.010 C 348.708 315.573,348.998 315.925,349.212 315.793 C 349.425 315.661,349.600 315.833,349.600 316.176 C 349.600 316.519,349.780 316.800,350.000 316.800 C 350.220 316.800,350.400 317.160,350.400 317.600 C 350.400 318.044,350.667 318.400,351.000 318.400 C 351.330 318.400,351.600 318.567,351.600 318.771 C 351.600 318.976,351.883 319.426,352.229 319.771 C 352.579 320.122,352.660 320.400,352.413 320.400 C 352.121 320.400,352.146 320.592,352.484 320.958 C 352.768 321.265,353.135 321.434,353.300 321.334 C 353.465 321.235,353.600 321.501,353.600 321.927 C 353.600 322.353,353.868 322.924,354.196 323.196 C 354.523 323.468,354.693 323.850,354.572 324.045 C 354.451 324.240,354.543 324.400,354.776 324.400 C 355.009 324.400,355.200 324.771,355.200 325.224 C 355.200 325.677,355.380 325.936,355.600 325.800 C 355.820 325.664,356.000 325.913,356.000 326.353 C 356.000 326.793,356.180 327.264,356.400 327.400 C 356.620 327.536,356.800 327.997,356.800 328.424 C 356.800 328.851,356.980 329.200,357.200 329.200 C 357.420 329.200,357.600 329.740,357.600 330.400 C 357.600 331.060,357.780 331.600,358.000 331.600 C 358.220 331.600,358.400 332.140,358.400 332.800 C 358.400 333.460,358.563 334.000,358.763 334.000 C 358.962 334.000,359.038 334.333,358.931 334.740 C 358.825 335.148,359.021 335.764,359.368 336.111 C 359.714 336.457,359.888 337.026,359.754 337.375 C 359.620 337.725,359.709 338.249,359.952 338.542 C 360.194 338.834,360.275 339.192,360.130 339.337 C 359.985 339.482,360.087 339.600,360.357 339.600 C 360.627 339.600,360.752 339.754,360.635 339.943 C 360.519 340.132,360.585 340.852,360.784 341.543 C 361.042 342.445,361.011 342.802,360.672 342.806 C 360.355 342.810,360.375 342.923,360.732 343.150 C 361.108 343.388,361.273 344.568,361.295 347.166 C 361.312 349.274,361.467 350.621,361.657 350.322 C 361.839 350.035,361.988 349.980,361.988 350.200 C 361.988 350.420,361.820 350.865,361.615 351.189 C 361.382 351.557,361.387 351.868,361.628 352.017 C 361.863 352.163,362.019 357.510,362.028 365.696 C 362.039 376.496,362.148 379.225,362.583 379.586 C 362.880 379.833,363.078 380.342,363.022 380.717 C 362.966 381.093,363.228 381.618,363.605 381.884 C 363.981 382.150,364.516 382.915,364.793 383.584 C 365.092 384.306,365.592 384.800,366.022 384.800 C 366.420 384.800,366.860 385.160,367.000 385.600 C 367.210 386.262,368.112 386.683,368.500 386.302 C 368.555 386.247,369.140 386.586,369.800 387.054 C 371.066 387.952,378.155 388.330,379.585 387.576 C 379.923 387.398,380.785 387.017,381.500 386.729 C 382.215 386.440,382.800 385.998,382.800 385.746 C 382.800 385.493,383.250 385.174,383.800 385.036 C 384.350 384.898,384.800 384.584,384.800 384.339 C 384.800 384.094,385.116 383.603,385.503 383.247 C 385.889 382.891,386.450 382.060,386.749 381.400 C 387.049 380.740,387.452 379.887,387.647 379.505 C 388.076 378.661,387.895 343.092,387.452 341.400 C 387.280 340.740,387.110 339.271,387.075 338.135 C 387.039 336.999,386.873 336.155,386.705 336.259 C 386.451 336.416,386.193 334.110,386.353 333.100 C 386.379 332.935,386.220 332.800,386.000 332.800 C 385.780 332.800,385.600 332.091,385.600 331.224 C 385.600 330.357,385.420 329.536,385.200 329.400 C 384.980 329.264,384.800 328.719,384.800 328.189 C 384.800 327.658,384.450 326.601,384.022 325.838 C 383.463 324.844,383.378 324.397,383.722 324.258 C 384.078 324.113,384.073 324.055,383.700 324.032 C 383.425 324.014,383.200 323.640,383.200 323.200 C 383.200 322.760,383.020 322.400,382.800 322.400 C 382.580 322.400,382.400 321.860,382.400 321.200 C 382.400 320.540,382.265 319.999,382.100 319.997 C 381.653 319.992,380.800 317.974,380.800 316.920 C 380.800 316.414,380.642 316.000,380.449 316.000 C 380.255 316.000,379.860 315.415,379.571 314.700 C 379.282 313.985,378.918 313.310,378.763 313.200 C 378.607 313.090,378.417 312.640,378.340 312.200 C 378.263 311.760,377.973 311.160,377.696 310.868 C 377.419 310.575,377.312 310.142,377.458 309.906 C 377.604 309.670,377.561 309.575,377.362 309.696 C 376.949 309.947,376.263 309.250,376.070 308.384 C 375.998 308.063,375.773 307.740,375.570 307.667 C 375.366 307.593,375.200 307.188,375.200 306.767 C 375.200 306.345,375.020 306.000,374.800 306.000 C 374.580 306.000,374.421 305.865,374.447 305.700 C 374.567 304.941,374.322 304.435,373.300 303.331 C 370.738 300.566,369.511 298.875,370.438 299.386 C 370.747 299.556,370.292 299.044,369.427 298.248 C 368.562 297.452,368.012 296.800,368.204 296.800 C 368.396 296.800,368.204 296.536,367.776 296.213 C 367.349 295.890,367.157 295.620,367.349 295.613 C 367.541 295.606,367.476 295.332,367.204 295.004 C 366.932 294.677,366.550 294.507,366.355 294.628 C 366.160 294.749,366.000 294.480,366.000 294.031 C 366.000 293.494,365.658 293.129,365.000 292.964 C 364.450 292.826,364.000 292.587,364.000 292.432 C 364.000 292.277,362.695 290.867,361.100 289.298 C 357.141 285.404,356.459 284.800,356.027 284.800 C 355.822 284.800,355.540 284.440,355.400 284.000 C 355.260 283.560,354.907 283.200,354.616 283.200 C 354.324 283.200,353.981 282.928,353.854 282.596 C 353.727 282.264,353.479 282.039,353.303 282.096 C 352.786 282.265,350.801 280.535,351.114 280.189 C 351.271 280.014,351.198 279.987,350.952 280.127 C 350.706 280.268,349.997 279.947,349.377 279.414 C 348.757 278.881,348.115 278.529,347.950 278.631 C 347.784 278.733,347.503 278.556,347.325 278.237 C 347.009 277.672,346.856 277.600,345.976 277.600 C 345.743 277.600,345.683 277.389,345.842 277.132 C 346.036 276.817,345.913 276.748,345.466 276.919 C 345.043 277.082,344.800 276.973,344.800 276.623 C 344.800 276.319,344.485 276.118,344.100 276.176 C 343.715 276.233,343.165 275.947,342.877 275.540 C 342.590 275.133,342.005 274.800,341.577 274.800 C 341.150 274.800,340.800 274.620,340.800 274.400 C 340.800 274.180,340.440 274.000,340.000 274.000 C 339.560 274.000,339.200 273.820,339.200 273.600 C 339.200 273.380,338.851 273.200,338.424 273.200 C 337.997 273.200,337.536 273.020,337.400 272.800 C 337.264 272.580,336.803 272.400,336.376 272.400 C 335.949 272.400,335.600 272.220,335.600 272.000 C 335.600 271.780,335.139 271.600,334.576 271.600 C 334.013 271.600,333.640 271.458,333.748 271.285 C 333.917 271.011,333.075 270.809,331.300 270.698 C 331.025 270.681,330.800 270.539,330.800 270.382 C 330.800 269.955,328.534 269.100,327.404 269.100 C 326.860 269.100,326.512 268.943,326.631 268.750 C 326.750 268.558,326.487 268.400,326.047 268.400 C 325.607 268.400,325.159 268.258,325.052 268.084 C 324.944 267.910,324.184 267.722,323.362 267.667 C 322.541 267.611,321.673 267.439,321.434 267.285 C 320.806 266.877,316.818 266.056,315.324 266.026 C 314.622 266.012,313.954 265.849,313.839 265.664 C 313.725 265.478,312.440 265.289,310.983 265.241 C 309.527 265.194,307.931 265.002,307.438 264.814 C 306.944 264.627,305.294 264.467,303.770 264.460 C 302.247 264.453,291.705 264.436,280.344 264.423 L 259.688 264.400 259.431 262.900 C 259.291 262.075,259.071 260.187,258.943 258.704 C 258.815 257.221,258.595 256.077,258.455 256.162 C 258.315 256.246,258.166 255.407,258.124 254.296 C 258.082 253.186,257.894 252.170,257.705 252.038 C 257.516 251.907,257.388 250.720,257.419 249.400 C 257.450 248.080,257.261 246.460,256.999 245.800 C 256.737 245.140,256.571 243.923,256.629 243.096 C 256.687 242.270,256.594 241.680,256.421 241.787 C 256.010 242.041,255.575 238.832,255.829 237.427 C 255.944 236.794,255.868 236.434,255.648 236.570 C 255.066 236.930,254.873 235.909,255.330 234.889 C 255.630 234.219,255.825 234.113,256.063 234.489 C 256.301 234.863,256.389 234.812,256.394 234.300 C 256.397 233.915,256.542 233.600,256.717 233.600 C 256.891 233.600,257.701 232.970,258.518 232.200 C 259.334 231.430,260.229 230.800,260.506 230.800 C 260.783 230.800,261.188 230.410,261.405 229.933 C 261.622 229.456,262.104 228.879,262.475 228.650 C 262.847 228.422,264.647 226.798,266.475 225.042 C 268.304 223.286,269.440 222.098,269.000 222.402 C 268.560 222.706,268.977 222.202,269.927 221.283 C 270.877 220.364,271.556 219.453,271.437 219.259 C 271.317 219.066,271.606 218.568,272.078 218.153 C 272.551 217.739,272.806 217.625,272.645 217.900 C 272.484 218.175,272.463 218.400,272.597 218.400 C 272.731 218.400,273.107 217.762,273.433 216.983 C 273.759 216.203,274.290 215.464,274.613 215.340 C 274.936 215.216,275.206 214.819,275.213 214.457 C 275.229 213.625,276.194 212.327,276.540 212.673 C 276.683 212.816,276.800 212.543,276.800 212.067 C 276.800 211.590,276.980 211.200,277.200 211.200 C 277.420 211.200,277.600 210.964,277.600 210.675 C 277.600 210.387,277.960 209.764,278.400 209.292 C 278.840 208.820,279.200 208.246,279.200 208.017 C 279.200 207.788,279.342 207.600,279.515 207.600 C 279.688 207.600,279.860 207.198,279.897 206.706 C 279.934 206.214,280.152 205.749,280.382 205.673 C 280.612 205.596,280.800 205.300,280.800 205.016 C 280.800 204.731,281.068 204.276,281.396 204.004 C 281.723 203.732,281.900 203.362,281.789 203.182 C 281.678 203.002,281.770 202.742,281.993 202.604 C 282.217 202.466,282.400 201.993,282.400 201.553 C 282.400 201.113,282.580 200.864,282.800 201.000 C 283.020 201.136,283.200 200.877,283.200 200.424 C 283.200 199.971,283.374 199.600,283.587 199.600 C 283.801 199.600,283.882 199.359,283.769 199.064 C 283.656 198.769,283.831 198.306,284.158 198.035 C 284.485 197.764,284.663 197.308,284.553 197.022 C 284.444 196.737,284.641 196.216,284.991 195.866 C 285.342 195.515,285.622 195.132,285.614 195.014 C 285.512 193.477,285.639 193.039,286.024 193.600 C 286.366 194.099,286.425 194.065,286.372 193.400 C 286.223 191.541,286.401 190.582,286.782 191.184 C 287.050 191.609,287.141 191.421,287.115 190.498 C 287.095 189.799,287.248 188.996,287.455 188.714 C 287.661 188.431,287.886 187.660,287.954 187.000 C 288.022 186.340,288.260 185.577,288.484 185.305 C 288.707 185.033,288.793 184.560,288.676 184.254 C 288.559 183.948,288.644 183.516,288.867 183.293 C 289.089 183.071,289.330 181.764,289.403 180.388 C 289.476 179.013,289.685 177.778,289.868 177.644 C 290.050 177.510,290.188 176.500,290.174 175.400 C 290.159 174.300,290.336 173.150,290.568 172.845 C 290.801 172.537,290.991 170.358,290.994 167.946 L 291.000 163.601 292.225 163.601 C 292.898 163.600,293.798 163.285,294.225 162.900 C 294.651 162.515,295.489 161.948,296.086 161.640 C 296.684 161.332,297.078 160.927,296.963 160.740 C 296.847 160.553,296.973 160.400,297.243 160.400 C 297.513 160.400,297.616 160.282,297.472 160.138 C 297.328 159.995,297.748 159.363,298.405 158.735 C 299.062 158.107,299.600 157.325,299.600 156.997 C 299.600 156.668,299.777 156.400,299.994 156.400 C 300.249 156.400,300.388 147.272,300.388 130.580 C 300.388 113.735,300.251 104.845,299.994 105.004 C 299.663 105.208,299.340 101.922,299.567 100.658 C 299.600 100.470,299.434 100.082,299.197 99.797 C 298.884 99.419,298.907 99.221,299.283 99.070 C 299.679 98.912,299.683 98.856,299.300 98.832 C 298.971 98.811,298.800 98.116,298.800 96.800 C 298.800 95.700,298.620 94.800,298.400 94.800 C 298.180 94.800,298.000 94.271,298.000 93.624 C 298.000 92.977,297.820 92.336,297.600 92.200 C 297.380 92.064,297.200 91.233,297.200 90.353 C 297.200 89.388,297.041 88.851,296.800 89.000 C 296.563 89.147,296.400 88.682,296.400 87.857 C 296.400 87.092,296.226 86.407,296.013 86.333 C 295.800 86.260,295.582 85.627,295.530 84.928 C 295.477 84.228,295.291 83.744,295.117 83.851 C 294.943 83.959,294.800 83.497,294.800 82.824 C 294.800 82.115,294.590 81.597,294.300 81.594 C 293.967 81.590,294.000 81.458,294.400 81.200 C 294.730 80.987,294.809 80.809,294.575 80.806 C 294.063 80.799,292.948 78.091,293.127 77.289 C 293.198 76.969,293.067 76.835,292.827 76.983 C 292.592 77.129,292.400 76.960,292.400 76.610 C 292.400 76.259,292.123 75.549,291.784 75.032 C 291.446 74.516,291.205 73.937,291.249 73.747 C 291.362 73.257,290.423 71.062,289.985 70.791 C 289.784 70.667,289.557 70.153,289.480 69.650 C 289.404 69.146,289.089 68.579,288.782 68.389 C 288.475 68.199,288.334 67.933,288.469 67.798 C 288.604 67.662,288.268 67.104,287.722 66.558 C 287.175 66.012,286.816 65.335,286.924 65.054 C 287.032 64.773,286.778 64.329,286.360 64.068 C 285.942 63.807,285.600 63.325,285.600 62.997 C 285.600 62.668,285.375 62.397,285.100 62.394 C 284.767 62.390,284.800 62.258,285.200 62.000 C 285.600 61.742,285.633 61.610,285.300 61.606 C 285.025 61.603,284.800 61.319,284.800 60.976 C 284.800 60.633,284.620 60.464,284.400 60.600 C 284.180 60.736,283.999 60.612,283.998 60.324 C 283.997 60.036,283.452 59.220,282.787 58.510 C 282.122 57.801,281.583 57.126,281.589 57.010 C 281.633 56.157,281.550 55.984,281.200 56.200 C 280.980 56.336,280.800 56.149,280.800 55.784 C 280.800 55.419,280.305 54.621,279.700 54.009 C 278.195 52.488,277.674 51.800,277.140 50.628 C 276.889 50.076,276.529 49.720,276.342 49.836 C 276.154 49.952,275.999 49.902,275.998 49.724 C 275.997 49.546,275.448 48.815,274.778 48.100 C 274.108 47.385,273.671 46.800,273.808 46.800 C 273.945 46.800,273.742 46.485,273.357 46.100 C 272.972 45.715,272.554 45.418,272.429 45.440 C 272.056 45.504,271.255 44.235,271.459 43.904 C 271.563 43.737,271.502 43.600,271.324 43.599 C 270.768 43.597,268.400 41.401,268.400 40.888 C 268.400 40.620,268.265 40.445,268.100 40.500 C 267.780 40.607,267.177 40.111,264.263 37.347 C 263.250 36.386,262.228 35.600,261.992 35.600 C 261.757 35.600,261.143 35.195,260.628 34.700 C 258.911 33.049,256.706 31.399,256.351 31.500 C 256.158 31.555,256.045 31.375,256.100 31.100 C 256.155 30.825,255.975 30.645,255.700 30.700 C 255.425 30.755,255.200 30.632,255.200 30.427 C 255.200 30.222,254.822 29.934,254.361 29.787 C 253.899 29.641,253.192 29.224,252.789 28.861 C 251.176 27.405,250.771 27.171,250.333 27.441 C 250.068 27.605,249.985 27.547,250.136 27.304 C 250.279 27.073,250.081 26.763,249.698 26.616 C 249.314 26.469,248.996 26.405,248.990 26.474 C 248.985 26.543,248.466 26.195,247.836 25.700 C 247.207 25.205,246.346 24.800,245.922 24.800 C 245.499 24.800,245.264 24.620,245.400 24.400 C 245.536 24.180,245.287 24.000,244.847 24.000 C 244.407 24.000,243.936 23.820,243.800 23.600 C 243.664 23.380,243.103 23.200,242.553 23.200 C 242.003 23.200,241.644 23.053,241.755 22.873 C 241.866 22.693,241.337 22.321,240.579 22.047 C 239.820 21.773,239.200 21.380,239.200 21.174 C 239.200 20.968,238.761 20.800,238.224 20.800 C 237.687 20.800,237.136 20.620,237.000 20.400 C 236.864 20.180,236.303 20.000,235.753 20.000 C 235.188 20.000,234.860 19.826,235.000 19.600 C 235.145 19.366,234.730 19.200,234.000 19.200 C 233.270 19.200,232.855 19.034,233.000 18.800 C 233.138 18.576,232.829 18.400,232.299 18.400 C 231.777 18.400,230.605 18.040,229.694 17.600 C 228.784 17.160,227.760 16.800,227.419 16.800 C 227.079 16.800,226.797 16.575,226.794 16.300 C 226.789 15.932,226.697 15.943,226.444 16.343 C 226.204 16.721,226.017 16.751,225.826 16.443 C 225.676 16.199,225.113 16.000,224.576 16.000 C 224.039 16.000,223.600 15.820,223.600 15.600 C 223.600 15.380,223.028 15.200,222.328 15.200 C 221.065 15.200,218.835 14.622,217.505 13.951 C 217.123 13.758,215.863 13.597,214.705 13.594 C 213.543 13.590,212.820 13.448,213.091 13.276 C 213.361 13.104,212.377 12.919,210.904 12.865 C 209.431 12.811,208.129 12.609,208.011 12.418 C 207.738 11.977,183.014 12.017,182.317 12.460 M196.001 38.300 C 196.001 38.465,196.548 38.638,197.215 38.685 C 198.023 38.742,198.336 38.621,198.153 38.323 C 197.969 38.027,198.061 37.990,198.425 38.215 C 198.726 38.402,200.059 38.594,201.386 38.644 C 205.386 38.792,206.800 38.949,206.800 39.244 C 206.800 39.398,207.522 39.466,208.405 39.395 C 209.287 39.324,210.232 39.481,210.505 39.743 C 210.777 40.005,211.585 40.215,212.300 40.210 C 213.015 40.204,213.600 40.354,213.600 40.543 C 213.600 40.731,213.864 40.784,214.187 40.660 C 214.510 40.536,214.888 40.619,215.028 40.845 C 215.167 41.070,215.515 41.165,215.801 41.055 C 216.088 40.945,216.436 40.970,216.576 41.109 C 216.716 41.249,217.314 41.428,217.905 41.508 C 218.496 41.587,219.244 41.865,219.567 42.126 C 219.995 42.472,220.078 42.474,219.875 42.135 C 219.722 41.880,220.309 42.015,221.179 42.435 C 222.049 42.856,223.029 43.200,223.357 43.200 C 223.685 43.200,224.064 43.380,224.200 43.600 C 224.336 43.820,224.797 44.000,225.224 44.000 C 225.651 44.000,226.000 44.180,226.000 44.400 C 226.000 44.620,226.416 44.800,226.925 44.800 C 227.433 44.800,228.236 45.160,228.708 45.600 C 229.180 46.040,229.844 46.400,230.183 46.400 C 230.522 46.400,230.800 46.580,230.800 46.800 C 230.800 47.020,231.261 47.200,231.824 47.200 C 232.404 47.200,232.740 47.373,232.600 47.600 C 232.464 47.820,232.599 48.000,232.901 48.000 C 233.202 48.000,233.836 48.360,234.308 48.800 C 234.780 49.240,235.444 49.600,235.783 49.600 C 236.122 49.600,236.400 49.791,236.400 50.024 C 236.400 50.257,236.580 50.336,236.800 50.200 C 237.020 50.064,237.200 50.241,237.200 50.594 C 237.200 50.947,237.453 51.182,237.762 51.118 C 238.071 51.053,238.687 51.417,239.132 51.926 C 239.576 52.436,240.062 52.815,240.212 52.768 C 240.361 52.722,240.780 52.889,241.142 53.139 C 241.504 53.390,242.622 54.131,243.627 54.786 C 244.631 55.442,245.697 56.433,245.994 56.989 C 246.292 57.545,246.820 58.002,247.168 58.004 C 247.883 58.009,253.600 63.685,253.600 64.390 C 253.600 64.641,253.780 64.736,254.000 64.600 C 254.220 64.464,254.400 64.624,254.400 64.957 C 254.400 65.289,254.715 65.744,255.100 65.968 C 255.485 66.192,255.689 66.381,255.553 66.388 C 255.418 66.395,256.193 67.300,257.276 68.400 C 258.358 69.500,259.009 70.406,258.722 70.414 C 258.435 70.422,258.559 70.647,259.000 70.914 C 259.440 71.181,259.800 71.670,259.800 72.000 C 259.800 72.330,260.038 72.551,260.330 72.490 C 260.621 72.430,260.740 72.574,260.593 72.811 C 260.446 73.048,260.700 73.566,261.156 73.962 C 261.612 74.357,261.869 74.798,261.726 74.941 C 261.583 75.083,261.687 75.200,261.957 75.200 C 262.227 75.200,262.348 75.361,262.226 75.558 C 262.104 75.755,262.271 76.018,262.596 76.143 C 262.965 76.285,263.090 76.637,262.930 77.085 C 262.788 77.478,262.818 77.669,262.995 77.508 C 263.172 77.347,263.737 78.121,264.249 79.227 C 264.761 80.333,265.457 81.514,265.794 81.851 C 266.131 82.189,266.305 82.630,266.180 82.832 C 266.055 83.035,266.122 83.200,266.330 83.200 C 266.718 83.200,267.146 84.251,267.469 85.999 C 267.571 86.549,267.904 87.139,268.210 87.310 C 268.526 87.486,268.658 87.904,268.515 88.276 C 268.347 88.715,268.419 88.836,268.732 88.642 C 269.050 88.445,269.200 88.744,269.200 89.576 C 269.200 90.249,269.380 90.800,269.600 90.800 C 269.820 90.800,270.003 91.385,270.006 92.100 C 270.011 93.086,270.106 93.255,270.400 92.800 C 270.684 92.361,270.789 92.655,270.794 93.900 C 270.797 94.835,270.980 95.600,271.200 95.600 C 271.420 95.600,271.600 96.320,271.600 97.200 C 271.600 98.080,271.780 98.800,272.000 98.800 C 272.220 98.800,272.400 99.419,272.400 100.176 C 272.400 100.933,272.580 101.664,272.800 101.800 C 273.020 101.936,273.200 102.922,273.200 103.990 C 273.200 105.059,273.363 105.993,273.562 106.067 C 273.761 106.140,273.986 107.845,274.062 109.856 L 274.200 113.513 272.952 112.256 C 272.266 111.565,271.774 110.878,271.858 110.729 C 271.943 110.580,271.670 110.349,271.253 110.217 C 270.818 110.079,270.392 109.459,270.252 108.762 C 270.119 108.094,269.856 107.642,269.668 107.758 C 269.299 107.986,267.600 105.898,267.600 105.216 C 267.600 104.987,267.420 104.800,267.200 104.800 C 266.980 104.800,266.800 104.607,266.800 104.371 C 266.800 104.136,266.530 103.673,266.200 103.343 C 265.870 103.013,265.600 102.846,265.600 102.973 C 265.600 103.099,264.970 102.505,264.200 101.653 C 263.430 100.800,262.800 99.900,262.800 99.652 C 262.800 99.403,262.620 99.200,262.400 99.200 C 262.180 99.200,262.000 99.007,262.000 98.771 C 262.000 98.179,260.951 97.182,260.648 97.486 C 260.511 97.622,260.400 97.265,260.400 96.694 C 260.400 96.005,260.130 95.568,259.600 95.400 C 259.160 95.260,258.800 94.888,258.800 94.573 C 258.800 94.258,258.575 94.045,258.300 94.100 C 258.025 94.155,257.851 93.958,257.913 93.662 C 257.974 93.367,257.806 93.198,257.538 93.287 C 257.269 93.377,256.724 93.124,256.325 92.725 C 255.926 92.326,255.071 92.000,254.424 92.000 C 253.777 92.000,253.136 91.820,253.000 91.600 C 252.663 91.055,245.200 91.072,245.200 91.618 C 245.200 91.847,244.975 92.006,244.700 91.970 C 243.567 91.823,242.768 92.025,243.000 92.400 C 243.136 92.620,242.967 92.800,242.624 92.800 C 242.281 92.800,242.000 92.991,242.000 93.224 C 242.000 93.457,241.820 93.536,241.601 93.400 C 241.113 93.099,239.498 94.164,239.873 94.540 C 240.204 94.871,238.727 96.002,238.304 95.741 C 238.137 95.637,238.000 95.741,238.000 95.972 C 238.000 96.505,236.732 98.000,236.280 98.000 C 236.091 98.000,235.200 98.765,234.298 99.700 C 233.397 100.635,232.522 101.359,232.354 101.308 C 232.186 101.258,231.936 101.573,231.797 102.008 C 231.659 102.444,231.210 102.800,230.800 102.800 C 230.390 102.800,229.940 103.160,229.800 103.600 C 229.660 104.040,229.288 104.400,228.973 104.400 C 228.658 104.400,228.400 104.580,228.400 104.800 C 228.400 105.020,228.222 105.200,228.003 105.200 C 227.785 105.200,227.091 105.740,226.460 106.400 C 225.829 107.060,225.114 107.600,224.871 107.600 C 224.627 107.600,224.228 107.974,223.983 108.431 C 223.739 108.888,223.297 109.169,223.002 109.056 C 222.708 108.943,222.367 109.109,222.246 109.425 C 222.124 109.741,221.749 110.000,221.413 110.000 C 221.076 110.000,220.800 110.189,220.800 110.421 C 220.800 110.652,220.260 111.030,219.600 111.260 C 218.941 111.490,218.490 111.822,218.598 111.997 C 218.797 112.320,217.654 112.981,217.100 112.864 C 216.935 112.829,216.800 112.960,216.800 113.157 C 216.800 113.353,216.080 113.801,215.200 114.153 C 214.320 114.505,213.208 115.245,212.728 115.797 C 212.248 116.348,211.606 116.800,211.301 116.800 C 210.996 116.800,210.158 117.249,209.438 117.798 C 208.718 118.347,208.010 118.677,207.865 118.531 C 207.719 118.386,207.600 118.477,207.600 118.733 C 207.600 118.990,207.229 119.200,206.776 119.200 C 206.323 119.200,206.064 119.380,206.200 119.600 C 206.340 119.827,206.004 120.000,205.424 120.000 C 204.861 120.000,204.400 120.176,204.400 120.392 C 204.400 120.865,201.490 122.400,200.592 122.400 C 200.241 122.400,200.064 122.580,200.200 122.800 C 200.342 123.030,199.970 123.203,199.324 123.206 C 198.451 123.211,198.334 123.299,198.800 123.600 C 199.255 123.894,199.086 123.989,198.100 123.994 C 197.385 123.997,196.800 124.180,196.800 124.400 C 196.800 124.620,196.451 124.800,196.024 124.800 C 195.597 124.800,195.134 124.983,194.996 125.207 C 194.858 125.430,194.577 125.509,194.372 125.383 C 194.168 125.256,194.000 125.324,194.000 125.533 C 194.000 125.873,192.893 126.312,191.207 126.641 C 190.881 126.704,190.551 126.946,190.474 127.178 C 190.397 127.410,189.821 127.600,189.195 127.600 C 188.569 127.600,187.776 127.881,187.432 128.226 C 187.088 128.570,186.640 128.748,186.437 128.623 C 186.234 128.498,186.004 128.587,185.926 128.822 C 185.848 129.056,185.212 129.265,184.512 129.284 C 183.813 129.304,183.276 129.518,183.320 129.760 C 183.366 130.011,182.912 130.164,182.267 130.115 C 181.627 130.068,180.797 130.344,180.361 130.751 C 179.936 131.147,178.929 131.496,178.123 131.526 C 177.318 131.556,176.542 131.770,176.400 132.000 C 176.258 132.230,175.487 132.444,174.687 132.474 C 173.887 132.504,173.326 132.680,173.440 132.864 C 173.554 133.049,172.917 133.200,172.024 133.200 C 171.131 133.200,170.400 133.360,170.400 133.556 C 170.400 133.923,168.812 134.281,165.500 134.660 C 164.455 134.779,163.600 135.040,163.600 135.239 C 163.600 135.437,162.700 135.600,161.600 135.600 C 160.500 135.600,159.600 135.780,159.600 136.000 C 159.600 136.225,158.475 136.400,157.024 136.400 C 155.607 136.400,154.336 136.580,154.200 136.800 C 154.064 137.020,152.703 137.200,151.176 137.200 C 149.592 137.200,148.400 137.372,148.400 137.600 C 148.400 137.860,142.733 138.000,132.200 138.000 L 116.000 138.000 116.000 124.200 C 116.000 116.610,116.142 110.400,116.315 110.400 C 116.488 110.400,116.657 110.036,116.691 109.591 C 116.730 109.064,116.586 108.882,116.276 109.068 C 115.924 109.279,115.912 109.204,116.230 108.777 C 116.466 108.460,116.706 107.390,116.764 106.400 C 116.822 105.410,117.033 104.540,117.234 104.467 C 117.435 104.393,117.600 104.158,117.600 103.943 C 117.600 103.728,117.420 103.664,117.200 103.800 C 116.980 103.936,116.800 103.867,116.800 103.647 C 116.800 103.427,116.960 103.148,117.156 103.027 C 117.351 102.906,117.620 102.131,117.754 101.304 C 118.258 98.171,118.400 97.524,118.686 97.069 C 118.847 96.811,119.040 96.150,119.114 95.600 C 119.189 95.050,119.418 94.540,119.625 94.467 C 119.831 94.393,120.000 93.819,120.000 93.190 C 120.000 92.562,120.189 91.931,120.419 91.788 C 120.650 91.646,120.785 91.140,120.719 90.665 C 120.643 90.115,120.793 89.840,121.130 89.910 C 121.486 89.984,121.580 89.768,121.417 89.252 C 121.273 88.799,121.435 88.222,121.812 87.845 C 122.163 87.494,122.346 87.036,122.217 86.828 C 122.088 86.619,122.274 86.286,122.630 86.087 C 122.986 85.888,123.305 85.264,123.338 84.701 C 123.372 84.138,123.563 83.778,123.763 83.901 C 123.963 84.024,124.024 83.737,123.900 83.262 C 123.776 82.787,123.811 82.483,123.977 82.586 C 124.143 82.689,124.460 82.374,124.681 81.886 C 126.574 77.713,127.039 76.812,127.300 76.806 C 127.465 76.803,127.600 76.480,127.600 76.088 C 127.600 75.697,127.960 75.117,128.400 74.800 C 128.840 74.483,129.200 73.993,129.200 73.712 C 129.200 73.430,129.380 73.200,129.600 73.200 C 129.820 73.200,130.000 72.924,130.000 72.587 C 130.000 72.251,130.259 71.876,130.575 71.754 C 130.906 71.627,131.046 71.265,130.907 70.901 C 130.746 70.483,130.822 70.367,131.132 70.558 C 131.417 70.734,131.600 70.589,131.600 70.186 C 131.600 69.823,131.958 69.431,132.396 69.317 C 132.833 69.203,133.092 68.948,132.970 68.752 C 132.849 68.555,133.031 68.286,133.375 68.154 C 133.719 68.022,134.000 67.730,134.000 67.504 C 134.000 67.278,134.377 66.767,134.837 66.368 C 135.297 65.969,135.568 65.472,135.439 65.264 C 135.311 65.056,135.654 64.773,136.203 64.635 C 136.751 64.497,137.200 64.158,137.200 63.881 C 137.200 63.272,138.616 62.002,139.305 61.994 C 139.695 61.989,139.696 61.922,139.309 61.676 C 138.950 61.448,139.039 61.207,139.641 60.782 C 140.093 60.462,141.472 59.258,142.706 58.107 C 143.939 56.956,145.031 56.098,145.133 56.200 C 145.235 56.302,145.652 56.001,146.059 55.532 C 146.467 55.062,146.800 54.823,146.800 55.000 C 146.800 55.177,147.136 54.935,147.547 54.461 C 147.958 53.988,148.598 53.600,148.971 53.600 C 149.343 53.600,149.541 53.428,149.411 53.217 C 149.280 53.006,149.720 52.552,150.387 52.207 C 151.054 51.862,151.600 51.385,151.600 51.147 C 151.600 50.909,151.879 50.822,152.221 50.953 C 152.577 51.089,152.737 51.022,152.597 50.795 C 152.388 50.456,153.174 50.216,154.076 50.345 C 154.227 50.366,154.464 50.027,154.603 49.592 C 154.762 49.089,155.209 48.800,155.827 48.800 C 156.362 48.800,156.800 48.620,156.800 48.400 C 156.800 48.180,157.081 48.000,157.424 48.000 C 157.767 48.000,157.936 47.820,157.800 47.600 C 157.664 47.380,157.836 47.200,158.182 47.200 C 158.756 47.200,160.314 46.486,160.800 46.000 C 161.340 45.460,162.877 44.800,163.595 44.800 C 164.038 44.800,164.400 44.620,164.400 44.400 C 164.400 44.180,164.940 44.000,165.600 44.000 C 166.260 44.000,166.800 43.820,166.800 43.600 C 166.800 43.380,167.261 43.200,167.824 43.200 C 168.404 43.200,168.740 43.027,168.600 42.800 C 168.461 42.574,168.785 42.400,169.343 42.400 C 169.888 42.400,170.395 42.216,170.470 41.991 C 170.544 41.767,171.272 41.558,172.087 41.527 C 172.901 41.497,173.492 41.349,173.399 41.198 C 173.306 41.048,173.718 40.959,174.315 41.000 C 174.912 41.041,175.608 40.915,175.861 40.720 C 176.115 40.525,176.925 40.305,177.661 40.231 C 178.398 40.157,179.784 39.882,180.742 39.621 C 181.700 39.360,182.748 39.248,183.071 39.372 C 183.394 39.496,184.029 39.399,184.482 39.156 C 184.935 38.913,187.339 38.688,189.823 38.654 C 192.307 38.621,194.473 38.460,194.636 38.297 C 195.023 37.911,196.000 37.913,196.001 38.300 M248.843 124.400 C 249.286 124.400,249.545 124.565,249.420 124.768 C 249.295 124.970,249.458 125.401,249.782 125.725 C 250.106 126.049,250.423 126.542,250.486 126.821 C 250.549 127.100,251.240 127.974,252.021 128.764 C 252.803 129.554,253.680 130.680,253.971 131.266 C 254.261 131.853,254.811 132.414,255.193 132.514 C 255.574 132.614,256.130 133.246,256.428 133.919 C 256.726 134.592,257.099 135.063,257.256 134.965 C 257.414 134.868,257.652 135.134,257.786 135.557 C 257.921 135.980,258.294 136.427,258.615 136.550 C 258.937 136.674,259.200 137.051,259.200 137.387 C 259.200 137.724,259.391 138.000,259.624 138.000 C 259.857 138.000,259.917 138.211,259.758 138.468 C 259.567 138.778,259.683 138.854,260.101 138.693 C 260.471 138.551,260.829 138.698,260.962 139.046 C 261.109 139.428,261.013 139.556,260.695 139.402 C 260.423 139.271,260.605 139.463,261.100 139.830 C 261.595 140.197,262.000 140.638,262.000 140.809 C 262.000 140.980,262.656 141.776,263.457 142.577 L 264.914 144.034 264.707 157.263 C 264.554 167.077,264.374 170.569,264.010 170.794 C 263.710 170.979,263.594 171.636,263.709 172.490 C 263.812 173.257,263.669 174.547,263.391 175.356 C 262.928 176.702,262.941 176.784,263.542 176.321 C 264.023 175.950,264.001 176.047,263.461 176.682 C 263.054 177.159,262.831 177.726,262.964 177.943 C 263.098 178.159,262.976 178.575,262.694 178.868 C 262.412 179.160,262.193 179.670,262.208 180.000 C 262.223 180.330,262.000 181.184,261.713 181.898 C 261.426 182.612,261.193 183.287,261.195 183.398 C 261.221 184.547,261.154 184.819,260.883 184.651 C 260.709 184.544,260.537 184.845,260.501 185.322 C 260.465 185.798,260.248 186.251,260.018 186.327 C 259.788 186.404,259.600 186.642,259.600 186.857 C 259.600 187.072,259.825 187.112,260.100 186.947 C 260.499 186.707,260.500 186.771,260.103 187.260 C 259.830 187.597,259.710 187.977,259.837 188.103 C 259.963 188.230,259.692 188.708,259.233 189.167 C 258.775 189.625,258.397 190.495,258.394 191.100 C 258.389 191.957,258.302 192.068,258.000 191.600 C 257.707 191.146,257.611 191.322,257.606 192.324 C 257.603 193.103,257.436 193.546,257.200 193.400 C 256.980 193.264,256.800 193.444,256.800 193.800 C 256.800 194.156,256.620 194.336,256.400 194.200 C 256.175 194.061,256.000 194.382,256.000 194.934 C 256.000 195.473,255.739 196.015,255.419 196.137 C 255.100 196.260,254.461 197.188,254.000 198.200 C 253.539 199.212,252.900 200.140,252.581 200.263 C 252.261 200.385,252.000 200.747,252.000 201.066 C 252.000 201.386,251.822 201.537,251.605 201.403 C 251.387 201.268,251.305 201.407,251.421 201.711 C 251.538 202.015,251.177 202.605,250.617 203.026 C 250.057 203.446,249.600 204.005,249.600 204.268 C 249.600 204.531,249.267 204.852,248.861 204.981 C 248.454 205.110,247.907 205.685,247.646 206.259 C 247.384 206.834,247.065 207.199,246.937 207.071 C 246.645 206.779,245.600 207.795,245.600 208.371 C 245.600 208.607,245.453 208.755,245.274 208.700 C 245.095 208.645,243.520 209.905,241.775 211.500 C 240.030 213.095,238.276 214.400,237.878 214.400 C 237.479 214.400,237.264 214.580,237.400 214.800 C 237.536 215.020,237.367 215.200,237.024 215.200 C 236.681 215.200,236.400 215.380,236.400 215.600 C 236.400 215.820,236.130 216.000,235.800 216.000 C 235.470 216.000,235.200 216.137,235.200 216.304 C 235.200 216.471,234.821 216.844,234.358 217.133 C 233.895 217.422,233.636 217.466,233.782 217.230 C 234.262 216.453,233.390 216.782,232.800 217.600 C 232.483 218.040,231.903 218.400,231.512 218.400 C 231.120 218.400,230.799 218.535,230.797 218.700 C 230.793 219.111,228.809 220.000,227.897 220.000 C 227.488 220.000,227.264 220.180,227.400 220.400 C 227.536 220.620,227.367 220.800,227.024 220.800 C 226.681 220.800,226.400 220.980,226.400 221.200 C 226.400 221.420,225.961 221.600,225.424 221.600 C 224.887 221.600,224.336 221.780,224.200 222.000 C 224.064 222.220,223.524 222.400,223.000 222.400 C 222.476 222.400,221.936 222.580,221.800 222.800 C 221.664 223.020,221.023 223.200,220.376 223.200 C 219.729 223.200,219.200 223.380,219.200 223.600 C 219.200 223.820,218.401 224.000,217.424 224.000 C 216.447 224.000,215.536 224.180,215.400 224.400 C 215.264 224.620,214.173 224.800,212.976 224.800 C 211.779 224.800,210.800 224.935,210.800 225.100 C 210.800 225.265,205.940 225.400,200.000 225.400 C 194.060 225.400,189.200 225.265,189.200 225.100 C 189.200 224.935,188.221 224.800,187.024 224.800 C 185.827 224.800,184.736 224.620,184.600 224.400 C 184.464 224.180,183.564 224.000,182.600 224.000 C 181.636 224.000,180.736 223.820,180.600 223.600 C 180.464 223.380,179.924 223.200,179.400 223.200 C 178.876 223.200,178.336 223.020,178.200 222.800 C 178.064 222.580,177.601 222.400,177.171 222.400 C 176.741 222.400,176.077 222.229,175.695 222.020 C 175.313 221.812,173.740 221.064,172.200 220.360 C 170.660 219.655,169.340 218.925,169.266 218.737 C 169.192 218.549,168.969 218.496,168.769 218.619 C 168.570 218.742,167.947 218.383,167.385 217.822 C 166.823 217.260,166.001 216.800,165.558 216.800 C 165.115 216.800,164.864 216.620,165.000 216.400 C 165.141 216.172,164.796 216.000,164.200 216.000 C 163.624 216.000,163.244 215.853,163.355 215.673 C 163.562 215.338,162.286 214.230,161.834 214.351 C 161.696 214.387,161.105 213.973,160.519 213.430 C 159.933 212.887,159.307 212.534,159.127 212.645 C 158.947 212.756,158.800 212.646,158.800 212.400 C 158.800 212.154,158.575 212.082,158.300 212.241 C 158.025 212.399,157.935 212.379,158.101 212.197 C 158.480 211.779,157.220 210.341,156.737 210.639 C 156.541 210.760,156.430 210.621,156.490 210.330 C 156.551 210.038,156.362 209.849,156.070 209.910 C 155.779 209.970,155.642 209.856,155.766 209.655 C 155.890 209.455,155.689 209.045,155.319 208.745 C 154.868 208.380,154.745 208.363,154.944 208.695 C 155.143 209.027,155.045 209.115,154.646 208.962 C 154.298 208.829,154.151 208.471,154.293 208.101 C 154.439 207.720,154.371 207.571,154.121 207.725 C 153.893 207.866,153.385 207.625,152.991 207.191 C 152.598 206.756,152.377 206.400,152.501 206.400 C 152.624 206.400,151.977 205.615,151.063 204.657 C 150.148 203.698,149.265 202.988,149.100 203.080 C 148.826 203.233,148.624 202.269,148.763 201.470 C 148.794 201.289,148.635 201.255,148.410 201.394 C 148.184 201.533,148.000 201.406,148.000 201.112 C 148.000 200.817,147.640 200.317,147.200 200.000 C 146.760 199.683,146.400 199.276,146.400 199.095 C 146.400 198.914,146.046 198.387,145.614 197.923 C 145.181 197.459,144.922 196.926,145.037 196.739 C 145.153 196.553,145.027 196.400,144.757 196.400 C 144.487 196.400,144.386 196.281,144.531 196.136 C 144.676 195.991,144.436 195.620,143.997 195.313 C 143.559 195.006,143.200 194.405,143.200 193.977 C 143.200 193.550,143.020 193.200,142.800 193.200 C 142.580 193.200,142.400 192.750,142.400 192.200 C 142.400 191.650,142.220 191.200,142.000 191.200 C 141.780 191.200,141.600 190.934,141.600 190.610 C 141.600 190.285,141.255 189.451,140.833 188.757 C 140.411 188.063,140.171 187.220,140.301 186.882 C 140.455 186.480,140.375 186.368,140.068 186.558 C 139.596 186.850,139.446 186.403,139.580 185.097 C 139.619 184.711,139.395 184.296,139.081 184.176 C 138.768 184.056,138.536 183.562,138.567 183.079 C 138.598 182.595,138.478 182.096,138.301 181.970 C 138.124 181.843,137.939 181.186,137.889 180.509 C 137.840 179.832,137.665 179.361,137.500 179.463 C 137.335 179.564,137.200 179.097,137.200 178.424 C 137.200 177.751,137.043 177.200,136.852 177.200 C 136.661 177.200,136.505 176.885,136.507 176.500 C 136.522 172.676,136.342 170.672,136.029 171.166 C 135.792 171.541,135.625 170.794,135.535 168.966 C 135.300 164.154,135.093 164.404,139.328 164.374 C 144.632 164.338,146.500 164.207,147.366 163.813 C 147.940 163.551,148.053 163.591,147.817 163.972 C 147.571 164.370,147.681 164.385,148.325 164.040 C 148.778 163.798,150.509 163.600,152.174 163.600 C 154.145 163.600,155.200 163.443,155.200 163.151 C 155.200 162.841,155.385 162.856,155.800 163.200 C 156.215 163.544,156.400 163.559,156.400 163.249 C 156.400 162.968,157.283 162.800,158.767 162.800 C 160.068 162.800,161.193 162.638,161.267 162.439 C 161.340 162.241,162.480 162.018,163.800 161.943 C 165.120 161.868,166.293 161.682,166.408 161.529 C 166.522 161.377,167.540 161.195,168.670 161.127 C 169.800 161.058,170.641 160.867,170.539 160.701 C 170.372 160.430,172.642 160.207,173.900 160.370 C 174.175 160.406,174.400 160.247,174.400 160.018 C 174.400 159.788,175.019 159.600,175.776 159.600 C 176.533 159.600,177.264 159.420,177.400 159.200 C 177.536 158.980,178.346 158.800,179.200 158.800 C 180.054 158.800,180.864 158.620,181.000 158.400 C 181.136 158.180,181.676 158.000,182.200 158.000 C 182.724 158.000,183.272 157.808,183.417 157.573 C 183.562 157.338,183.928 157.240,184.229 157.356 C 184.530 157.471,185.051 157.292,185.385 156.958 C 185.720 156.623,186.141 156.440,186.321 156.551 C 186.792 156.842,190.000 155.970,190.000 155.551 C 190.000 155.358,190.525 155.200,191.167 155.200 C 191.808 155.200,192.397 155.010,192.474 154.778 C 192.551 154.546,192.881 154.316,193.207 154.267 C 193.533 154.218,194.051 154.021,194.358 153.830 C 194.664 153.638,195.433 153.496,196.065 153.514 C 196.697 153.532,197.111 153.379,196.984 153.173 C 196.782 152.847,197.621 152.614,198.500 152.753 C 198.665 152.779,198.800 152.609,198.800 152.376 C 198.800 152.143,198.980 152.064,199.200 152.200 C 199.420 152.336,199.600 152.273,199.600 152.061 C 199.600 151.849,199.988 151.776,200.463 151.900 C 201.054 152.055,201.235 151.980,201.039 151.663 C 200.851 151.359,201.097 151.200,201.753 151.200 C 202.303 151.200,202.864 151.020,203.000 150.800 C 203.136 150.580,203.672 150.400,204.190 150.400 C 204.709 150.400,205.193 150.233,205.267 150.030 C 205.340 149.826,205.663 149.601,205.984 149.530 C 206.306 149.458,206.925 149.085,207.360 148.700 C 207.795 148.315,208.578 148.000,209.099 148.000 C 209.629 148.000,209.938 147.824,209.800 147.600 C 209.664 147.380,209.810 147.200,210.124 147.200 C 210.694 147.200,218.821 143.275,219.200 142.816 C 219.310 142.683,220.618 141.983,222.106 141.259 C 223.595 140.536,224.710 139.778,224.585 139.576 C 224.461 139.374,224.636 139.316,224.976 139.446 C 225.334 139.583,225.693 139.424,225.830 139.067 C 225.960 138.728,226.300 138.540,226.585 138.650 C 226.870 138.759,227.466 138.388,227.909 137.824 C 228.353 137.261,228.991 136.800,229.329 136.800 C 229.667 136.800,230.181 136.575,230.471 136.300 C 230.762 136.025,231.495 135.545,232.099 135.233 C 232.704 134.921,233.112 134.579,233.006 134.472 C 232.712 134.179,234.111 133.227,234.857 133.213 C 235.219 133.206,235.617 132.933,235.742 132.607 C 235.872 132.269,236.235 132.115,236.585 132.250 C 236.987 132.404,237.200 132.254,237.200 131.819 C 237.200 131.453,237.347 131.244,237.527 131.355 C 237.707 131.466,238.107 131.207,238.415 130.779 C 238.724 130.350,239.205 130.000,239.485 130.000 C 239.764 130.000,240.218 129.640,240.493 129.200 C 240.768 128.760,241.213 128.400,241.482 128.400 C 241.751 128.400,242.165 128.040,242.400 127.600 C 242.635 127.160,243.102 126.800,243.438 126.800 C 243.773 126.800,243.936 126.620,243.800 126.400 C 243.664 126.180,243.833 126.000,244.176 126.000 C 244.519 126.000,244.800 125.820,244.800 125.600 C 244.800 125.380,245.062 125.200,245.381 125.200 C 245.701 125.200,246.286 124.768,246.681 124.240 C 247.251 123.478,247.466 123.396,247.720 123.840 C 247.896 124.148,248.401 124.400,248.843 124.400 M230.800 249.726 C 230.800 250.650,230.966 251.986,231.170 252.695 C 231.373 253.405,231.586 254.934,231.642 256.093 C 231.699 257.252,231.890 258.300,232.069 258.421 C 232.247 258.543,232.418 259.754,232.448 261.113 C 232.479 262.471,232.661 263.486,232.852 263.368 C 233.165 263.174,233.413 265.755,233.217 267.157 C 233.174 267.464,233.377 267.866,233.669 268.051 C 234.105 268.328,234.102 268.389,233.651 268.394 C 233.246 268.398,233.215 268.537,233.533 268.919 C 233.770 269.205,234.003 270.150,234.050 271.019 C 234.098 271.889,234.315 272.834,234.534 273.120 C 234.826 273.502,234.702 273.700,234.070 273.866 C 233.597 273.990,233.308 274.250,233.428 274.445 C 233.549 274.640,233.444 274.800,233.195 274.800 C 232.585 274.800,231.576 275.842,231.886 276.152 C 232.022 276.289,231.788 276.403,231.367 276.406 C 230.725 276.411,230.698 276.476,231.200 276.800 C 231.793 277.183,231.335 277.411,230.300 277.247 C 230.135 277.221,230.000 277.481,230.000 277.824 C 230.000 278.167,229.836 278.346,229.636 278.223 C 229.437 278.099,228.813 278.583,228.251 279.299 C 226.293 281.790,225.008 283.200,224.694 283.200 C 224.301 283.200,220.800 286.674,220.800 287.065 C 220.800 287.504,216.029 292.000,215.563 292.000 C 215.338 292.000,215.267 292.184,215.406 292.410 C 215.545 292.635,215.511 292.777,215.330 292.725 C 214.780 292.567,213.162 293.616,213.389 293.983 C 213.506 294.171,213.241 294.231,212.801 294.116 C 212.360 294.001,212.000 294.079,212.000 294.289 C 212.000 294.650,209.866 295.829,209.742 295.537 C 209.710 295.462,209.350 295.694,208.942 296.053 C 207.996 296.885,206.998 297.182,204.869 297.266 C 203.932 297.302,203.073 297.483,202.959 297.666 C 202.846 297.850,201.403 298.000,199.753 298.000 C 197.855 298.000,196.844 297.853,197.000 297.600 C 197.136 297.380,196.956 297.200,196.600 297.200 C 196.189 297.200,196.062 297.382,196.253 297.700 C 196.452 298.031,196.321 298.012,195.867 297.643 C 195.490 297.337,195.083 297.184,194.963 297.303 C 194.613 297.654,191.866 296.779,191.058 296.060 C 190.650 295.697,190.200 295.423,190.058 295.452 C 189.490 295.567,188.000 294.793,188.000 294.383 C 188.000 294.135,187.669 294.051,187.234 294.189 C 186.812 294.323,186.334 294.217,186.172 293.954 C 185.973 293.632,186.047 293.582,186.400 293.800 C 186.746 294.014,186.827 293.967,186.638 293.662 C 186.481 293.408,186.113 293.200,185.819 293.200 C 185.526 293.200,185.172 292.904,185.033 292.543 C 184.895 292.181,184.669 291.998,184.532 292.135 C 184.394 292.272,183.531 291.578,182.613 290.592 C 181.695 289.607,180.732 288.800,180.472 288.800 C 180.212 288.800,180.000 288.645,180.000 288.455 C 180.000 288.265,179.525 287.635,178.945 287.055 C 178.365 286.475,178.018 286.000,178.174 286.000 C 178.330 286.000,178.187 285.730,177.857 285.400 C 177.527 285.070,177.054 284.800,176.805 284.800 C 176.556 284.800,176.464 284.620,176.600 284.400 C 176.736 284.180,176.432 283.986,175.924 283.968 C 175.416 283.951,175.232 283.844,175.516 283.730 C 175.981 283.543,175.037 282.369,174.063 281.921 C 173.918 281.854,173.116 280.948,172.279 279.907 C 171.442 278.866,170.557 278.056,170.312 278.107 C 170.066 278.158,169.628 277.750,169.339 277.200 C 169.049 276.650,168.809 276.453,168.806 276.762 C 168.801 277.198,168.627 277.167,168.027 276.624 C 167.602 276.240,167.351 275.672,167.470 275.362 C 167.602 275.018,167.427 274.800,167.019 274.800 C 166.653 274.800,166.464 274.620,166.600 274.400 C 166.736 274.180,166.432 273.986,165.924 273.968 C 165.416 273.951,165.225 273.846,165.500 273.735 C 165.775 273.624,166.000 273.358,166.000 273.143 C 166.000 272.928,165.775 272.888,165.500 273.053 C 165.108 273.288,165.103 273.226,165.476 272.764 C 165.738 272.440,165.995 271.236,166.048 270.088 C 166.100 268.939,166.291 268.000,166.471 268.000 C 166.652 268.000,166.800 267.010,166.800 265.800 C 166.800 264.590,166.935 263.600,167.100 263.600 C 167.265 263.600,167.443 262.487,167.496 261.126 C 167.552 259.668,167.799 258.521,168.096 258.332 C 168.478 258.090,168.454 258.009,168.000 258.000 C 167.613 257.992,167.555 257.883,167.837 257.694 C 168.078 257.532,168.303 256.609,168.337 255.642 C 168.371 254.675,168.585 253.659,168.813 253.384 C 169.041 253.109,169.200 252.730,169.167 252.542 C 168.713 250.015,169.250 248.000,170.376 248.000 C 171.023 248.000,171.664 248.180,171.800 248.400 C 171.936 248.620,172.487 248.800,173.024 248.800 C 173.561 248.800,174.000 248.950,174.000 249.134 C 174.000 249.318,174.754 249.498,175.676 249.535 C 176.599 249.571,177.454 249.745,177.576 249.923 C 177.699 250.100,178.515 250.288,179.388 250.341 C 180.261 250.394,181.071 250.592,181.189 250.782 C 181.966 252.039,217.200 252.021,217.200 250.763 C 217.200 250.563,218.291 250.400,219.624 250.400 C 220.957 250.400,221.964 250.265,221.862 250.100 C 221.761 249.935,222.397 249.749,223.276 249.688 C 225.412 249.537,225.757 249.460,226.048 249.061 C 226.184 248.874,226.752 248.694,227.309 248.661 C 227.867 248.627,228.247 248.477,228.155 248.327 C 227.976 248.037,229.994 247.677,230.500 247.909 C 230.665 247.985,230.800 248.803,230.800 249.726 " stroke="none" fill="currentColor" fill-rule="evenodd"></path><path id="path1" d="M243.407 55.075 C 244.283 55.666,245.237 56.431,245.526 56.775 C 245.993 57.330,246.014 57.323,245.715 56.708 C 245.331 55.922,242.858 54.000,242.229 54.000 C 242.001 54.000,242.531 54.484,243.407 55.075 M139.600 60.800 C 139.093 61.240,138.857 61.600,139.077 61.600 C 139.296 61.600,139.802 61.240,140.200 60.800 C 140.598 60.360,140.834 60.000,140.723 60.000 C 140.613 60.000,140.107 60.360,139.600 60.800 M253.000 91.600 C 253.136 91.820,253.517 92.000,253.847 92.000 C 254.177 92.000,254.336 91.820,254.200 91.600 C 254.064 91.380,253.683 91.200,253.353 91.200 C 253.023 91.200,252.864 91.380,253.000 91.600 M239.029 95.029 C 238.164 95.893,238.241 96.106,239.200 95.507 C 239.640 95.232,240.000 94.871,240.000 94.704 C 240.000 94.243,239.721 94.336,239.029 95.029 M262.800 99.938 C 262.800 100.124,263.153 100.596,263.585 100.987 C 264.353 101.682,264.360 101.674,263.885 100.652 C 263.418 99.645,262.800 99.238,262.800 99.938 M90.612 101.717 C 90.441 102.112,90.413 102.547,90.551 102.684 C 90.957 103.090,91.284 102.520,91.097 101.731 C 90.932 101.033,90.910 101.032,90.612 101.717 M272.283 111.588 C 272.654 112.021,273.038 112.296,273.136 112.198 C 273.374 111.959,272.395 110.800,271.955 110.800 C 271.764 110.800,271.911 111.155,272.283 111.588 M263.870 143.200 C 264.052 143.530,264.296 148.390,264.413 154.000 L 264.627 164.200 264.713 154.176 C 264.788 145.565,264.711 144.044,264.170 143.376 C 263.824 142.949,263.689 142.870,263.870 143.200 M94.000 161.495 C 94.000 161.884,95.614 162.919,95.851 162.682 C 95.947 162.586,95.569 162.210,95.012 161.845 C 94.456 161.480,94.000 161.322,94.000 161.495 M146.816 163.982 C 146.393 164.249,146.594 164.341,147.540 164.314 C 148.398 164.290,148.668 164.163,148.324 163.945 C 147.663 163.526,147.532 163.529,146.816 163.982 M148.253 201.600 C 148.495 201.930,148.774 202.461,148.873 202.780 C 148.989 203.152,149.148 203.207,149.317 202.934 C 149.462 202.699,149.183 202.168,148.697 201.753 C 148.211 201.339,148.012 201.270,148.253 201.600 M251.000 202.000 C 250.602 202.440,250.478 202.800,250.724 202.800 C 250.970 202.800,251.365 202.440,251.600 202.000 C 251.835 201.560,251.960 201.200,251.876 201.200 C 251.792 201.200,251.398 201.560,251.000 202.000 M192.705 225.483 C 193.202 225.579,193.922 225.575,194.305 225.475 C 194.687 225.375,194.280 225.296,193.400 225.301 C 192.520 225.305,192.207 225.387,192.705 225.483 M205.905 225.483 C 206.402 225.579,207.122 225.575,207.505 225.475 C 207.887 225.375,207.480 225.296,206.600 225.301 C 205.720 225.305,205.407 225.387,205.905 225.483 M167.762 276.342 C 168.609 277.295,168.800 277.382,168.800 276.814 C 168.800 276.602,168.395 276.216,167.900 275.956 C 167.005 275.486,167.004 275.488,167.762 276.342 M42.500 285.423 C 41.911 286.063,41.862 286.400,42.357 286.400 C 42.698 286.400,43.337 285.196,43.109 284.983 C 43.049 284.927,42.775 285.125,42.500 285.423 M179.693 288.000 C 180.162 288.751,180.800 289.080,180.800 288.571 C 180.800 288.273,179.725 287.200,179.425 287.200 C 179.298 287.200,179.418 287.560,179.693 288.000 M218.486 289.054 C 217.983 289.574,217.730 290.000,217.924 290.000 C 218.348 290.000,219.797 288.455,219.564 288.251 C 219.474 288.172,218.989 288.533,218.486 289.054 M108.329 291.100 C 114.999 291.161,125.799 291.161,132.329 291.100 C 138.858 291.038,133.400 290.988,120.200 290.988 C 107.000 290.988,101.658 291.038,108.329 291.100 M267.500 291.100 C 274.155 291.161,285.045 291.161,291.700 291.100 C 298.355 291.038,292.910 290.988,279.600 290.988 C 266.290 290.988,260.845 291.038,267.500 291.100 M32.756 295.300 C 32.286 296.195,32.288 296.196,33.142 295.438 C 34.095 294.591,34.182 294.400,33.614 294.400 C 33.402 294.400,33.016 294.805,32.756 295.300 M371.214 300.671 C 371.222 300.852,371.688 301.540,372.250 302.200 C 373.131 303.236,373.203 303.264,372.772 302.408 C 372.217 301.304,371.192 300.161,371.214 300.671 M54.948 310.192 C 54.617 311.053,54.886 311.243,55.496 310.581 C 55.811 310.239,55.847 309.952,55.593 309.796 C 55.374 309.660,55.083 309.838,54.948 310.192 M40.388 335.622 C 40.146 336.074,40.007 336.622,40.080 336.839 C 40.152 337.057,40.418 336.687,40.671 336.017 C 41.197 334.625,41.039 334.405,40.388 335.622 M360.400 341.800 C 360.400 342.350,360.555 342.800,360.745 342.800 C 360.934 342.800,361.003 342.350,360.898 341.800 C 360.793 341.250,360.638 340.800,360.553 340.800 C 360.469 340.800,360.400 341.250,360.400 341.800 M387.474 341.500 C 387.378 341.665,387.445 342.160,387.622 342.600 C 387.903 343.298,387.947 343.260,387.972 342.300 C 388.000 341.215,387.812 340.914,387.474 341.500 M37.913 352.013 C 37.718 353.338,38.148 353.137,38.582 351.700 C 38.732 351.205,38.682 350.800,38.472 350.800 C 38.262 350.800,38.011 351.346,37.913 352.013 M13.625 382.200 C 13.625 382.420,13.890 382.949,14.213 383.376 C 14.536 383.804,14.800 383.973,14.800 383.753 C 14.800 383.533,14.536 383.004,14.213 382.576 C 13.890 382.149,13.625 381.980,13.625 382.200 M363.625 382.200 C 363.625 382.420,363.890 382.949,364.213 383.376 C 364.536 383.804,364.800 383.973,364.800 383.753 C 364.800 383.533,364.536 383.004,364.213 382.576 C 363.890 382.149,363.625 381.980,363.625 382.200 " stroke="none" fill="currentColor" fill-rule="evenodd"></path><path id="path2" d="M243.407 55.075 C 244.283 55.666,245.237 56.431,245.526 56.775 C 245.993 57.330,246.014 57.323,245.715 56.708 C 245.331 55.922,242.858 54.000,242.229 54.000 C 242.001 54.000,242.531 54.484,243.407 55.075 M139.600 60.800 C 139.093 61.240,138.857 61.600,139.077 61.600 C 139.296 61.600,139.802 61.240,140.200 60.800 C 140.598 60.360,140.834 60.000,140.723 60.000 C 140.613 60.000,140.107 60.360,139.600 60.800 M253.000 91.600 C 253.136 91.820,253.517 92.000,253.847 92.000 C 254.177 92.000,254.336 91.820,254.200 91.600 C 254.064 91.380,253.683 91.200,253.353 91.200 C 253.023 91.200,252.864 91.380,253.000 91.600 M239.029 95.029 C 238.164 95.893,238.241 96.106,239.200 95.507 C 239.640 95.232,240.000 94.871,240.000 94.704 C 240.000 94.243,239.721 94.336,239.029 95.029 M262.800 99.938 C 262.800 100.124,263.153 100.596,263.585 100.987 C 264.353 101.682,264.360 101.674,263.885 100.652 C 263.418 99.645,262.800 99.238,262.800 99.938 M90.612 101.717 C 90.441 102.112,90.413 102.547,90.551 102.684 C 90.957 103.090,91.284 102.520,91.097 101.731 C 90.932 101.033,90.910 101.032,90.612 101.717 M272.283 111.588 C 272.654 112.021,273.038 112.296,273.136 112.198 C 273.374 111.959,272.395 110.800,271.955 110.800 C 271.764 110.800,271.911 111.155,272.283 111.588 M263.870 143.200 C 264.052 143.530,264.296 148.390,264.413 154.000 L 264.627 164.200 264.713 154.176 C 264.788 145.565,264.711 144.044,264.170 143.376 C 263.824 142.949,263.689 142.870,263.870 143.200 M94.000 161.495 C 94.000 161.884,95.614 162.919,95.851 162.682 C 95.947 162.586,95.569 162.210,95.012 161.845 C 94.456 161.480,94.000 161.322,94.000 161.495 M146.816 163.982 C 146.393 164.249,146.594 164.341,147.540 164.314 C 148.398 164.290,148.668 164.163,148.324 163.945 C 147.663 163.526,147.532 163.529,146.816 163.982 M148.253 201.600 C 148.495 201.930,148.774 202.461,148.873 202.780 C 148.989 203.152,149.148 203.207,149.317 202.934 C 149.462 202.699,149.183 202.168,148.697 201.753 C 148.211 201.339,148.012 201.270,148.253 201.600 M251.000 202.000 C 250.602 202.440,250.478 202.800,250.724 202.800 C 250.970 202.800,251.365 202.440,251.600 202.000 C 251.835 201.560,251.960 201.200,251.876 201.200 C 251.792 201.200,251.398 201.560,251.000 202.000 M192.705 225.483 C 193.202 225.579,193.922 225.575,194.305 225.475 C 194.687 225.375,194.280 225.296,193.400 225.301 C 192.520 225.305,192.207 225.387,192.705 225.483 M205.905 225.483 C 206.402 225.579,207.122 225.575,207.505 225.475 C 207.887 225.375,207.480 225.296,206.600 225.301 C 205.720 225.305,205.407 225.387,205.905 225.483 M167.762 276.342 C 168.609 277.295,168.800 277.382,168.800 276.814 C 168.800 276.602,168.395 276.216,167.900 275.956 C 167.005 275.486,167.004 275.488,167.762 276.342 M42.500 285.423 C 41.911 286.063,41.862 286.400,42.357 286.400 C 42.698 286.400,43.337 285.196,43.109 284.983 C 43.049 284.927,42.775 285.125,42.500 285.423 M179.693 288.000 C 180.162 288.751,180.800 289.080,180.800 288.571 C 180.800 288.273,179.725 287.200,179.425 287.200 C 179.298 287.200,179.418 287.560,179.693 288.000 M218.486 289.054 C 217.983 289.574,217.730 290.000,217.924 290.000 C 218.348 290.000,219.797 288.455,219.564 288.251 C 219.474 288.172,218.989 288.533,218.486 289.054 M108.329 291.100 C 114.999 291.161,125.799 291.161,132.329 291.100 C 138.858 291.038,133.400 290.988,120.200 290.988 C 107.000 290.988,101.658 291.038,108.329 291.100 M267.500 291.100 C 274.155 291.161,285.045 291.161,291.700 291.100 C 298.355 291.038,292.910 290.988,279.600 290.988 C 266.290 290.988,260.845 291.038,267.500 291.100 M32.756 295.300 C 32.286 296.195,32.288 296.196,33.142 295.438 C 34.095 294.591,34.182 294.400,33.614 294.400 C 33.402 294.400,33.016 294.805,32.756 295.300 M371.214 300.671 C 371.222 300.852,371.688 301.540,372.250 302.200 C 373.131 303.236,373.203 303.264,372.772 302.408 C 372.217 301.304,371.192 300.161,371.214 300.671 M54.948 310.192 C 54.617 311.053,54.886 311.243,55.496 310.581 C 55.811 310.239,55.847 309.952,55.593 309.796 C 55.374 309.660,55.083 309.838,54.948 310.192 M40.388 335.622 C 40.146 336.074,40.007 336.622,40.080 336.839 C 40.152 337.057,40.418 336.687,40.671 336.017 C 41.197 334.625,41.039 334.405,40.388 335.622 M360.400 341.800 C 360.400 342.350,360.555 342.800,360.745 342.800 C 360.934 342.800,361.003 342.350,360.898 341.800 C 360.793 341.250,360.638 340.800,360.553 340.800 C 360.469 340.800,360.400 341.250,360.400 341.800 M387.474 341.500 C 387.378 341.665,387.445 342.160,387.622 342.600 C 387.903 343.298,387.947 343.260,387.972 342.300 C 388.000 341.215,387.812 340.914,387.474 341.500 M37.913 352.013 C 37.718 353.338,38.148 353.137,38.582 351.700 C 38.732 351.205,38.682 350.800,38.472 350.800 C 38.262 350.800,38.011 351.346,37.913 352.013 M13.625 382.200 C 13.625 382.420,13.890 382.949,14.213 383.376 C 14.536 383.804,14.800 383.973,14.800 383.753 C 14.800 383.533,14.536 383.004,14.213 382.576 C 13.890 382.149,13.625 381.980,13.625 382.200 M363.625 382.200 C 363.625 382.420,363.890 382.949,364.213 383.376 C 364.536 383.804,364.800 383.973,364.800 383.753 C 364.800 383.533,364.536 383.004,364.213 382.576 C 363.890 382.149,363.625 381.980,363.625 382.200 " stroke="none" fill="currentColor" fill-rule="evenodd"></path><path id="path3" d="M243.407 55.075 C 244.283 55.666,245.237 56.431,245.526 56.775 C 245.993 57.330,246.014 57.323,245.715 56.708 C 245.331 55.922,242.858 54.000,242.229 54.000 C 242.001 54.000,242.531 54.484,243.407 55.075 M139.600 60.800 C 139.093 61.240,138.857 61.600,139.077 61.600 C 139.296 61.600,139.802 61.240,140.200 60.800 C 140.598 60.360,140.834 60.000,140.723 60.000 C 140.613 60.000,140.107 60.360,139.600 60.800 M253.000 91.600 C 253.136 91.820,253.517 92.000,253.847 92.000 C 254.177 92.000,254.336 91.820,254.200 91.600 C 254.064 91.380,253.683 91.200,253.353 91.200 C 253.023 91.200,252.864 91.380,253.000 91.600 M239.029 95.029 C 238.164 95.893,238.241 96.106,239.200 95.507 C 239.640 95.232,240.000 94.871,240.000 94.704 C 240.000 94.243,239.721 94.336,239.029 95.029 M262.800 99.938 C 262.800 100.124,263.153 100.596,263.585 100.987 C 264.353 101.682,264.360 101.674,263.885 100.652 C 263.418 99.645,262.800 99.238,262.800 99.938 M90.612 101.717 C 90.441 102.112,90.413 102.547,90.551 102.684 C 90.957 103.090,91.284 102.520,91.097 101.731 C 90.932 101.033,90.910 101.032,90.612 101.717 M272.283 111.588 C 272.654 112.021,273.038 112.296,273.136 112.198 C 273.374 111.959,272.395 110.800,271.955 110.800 C 271.764 110.800,271.911 111.155,272.283 111.588 M263.870 143.200 C 264.052 143.530,264.296 148.390,264.413 154.000 L 264.627 164.200 264.713 154.176 C 264.788 145.565,264.711 144.044,264.170 143.376 C 263.824 142.949,263.689 142.870,263.870 143.200 M94.000 161.495 C 94.000 161.884,95.614 162.919,95.851 162.682 C 95.947 162.586,95.569 162.210,95.012 161.845 C 94.456 161.480,94.000 161.322,94.000 161.495 M146.816 163.982 C 146.393 164.249,146.594 164.341,147.540 164.314 C 148.398 164.290,148.668 164.163,148.324 163.945 C 147.663 163.526,147.532 163.529,146.816 163.982 M148.253 201.600 C 148.495 201.930,148.774 202.461,148.873 202.780 C 148.989 203.152,149.148 203.207,149.317 202.934 C 149.462 202.699,149.183 202.168,148.697 201.753 C 148.211 201.339,148.012 201.270,148.253 201.600 M251.000 202.000 C 250.602 202.440,250.478 202.800,250.724 202.800 C 250.970 202.800,251.365 202.440,251.600 202.000 C 251.835 201.560,251.960 201.200,251.876 201.200 C 251.792 201.200,251.398 201.560,251.000 202.000 M192.705 225.483 C 193.202 225.579,193.922 225.575,194.305 225.475 C 194.687 225.375,194.280 225.296,193.400 225.301 C 192.520 225.305,192.207 225.387,192.705 225.483 M205.905 225.483 C 206.402 225.579,207.122 225.575,207.505 225.475 C 207.887 225.375,207.480 225.296,206.600 225.301 C 205.720 225.305,205.407 225.387,205.905 225.483 M167.762 276.342 C 168.609 277.295,168.800 277.382,168.800 276.814 C 168.800 276.602,168.395 276.216,167.900 275.956 C 167.005 275.486,167.004 275.488,167.762 276.342 M42.500 285.423 C 41.911 286.063,41.862 286.400,42.357 286.400 C 42.698 286.400,43.337 285.196,43.109 284.983 C 43.049 284.927,42.775 285.125,42.500 285.423 M179.693 288.000 C 180.162 288.751,180.800 289.080,180.800 288.571 C 180.800 288.273,179.725 287.200,179.425 287.200 C 179.298 287.200,179.418 287.560,179.693 288.000 M218.486 289.054 C 217.983 289.574,217.730 290.000,217.924 290.000 C 218.348 290.000,219.797 288.455,219.564 288.251 C 219.474 288.172,218.989 288.533,218.486 289.054 M108.329 291.100 C 114.999 291.161,125.799 291.161,132.329 291.100 C 138.858 291.038,133.400 290.988,120.200 290.988 C 107.000 290.988,101.658 291.038,108.329 291.100 M267.500 291.100 C 274.155 291.161,285.045 291.161,291.700 291.100 C 298.355 291.038,292.910 290.988,279.600 290.988 C 266.290 290.988,260.845 291.038,267.500 291.100 M32.756 295.300 C 32.286 296.195,32.288 296.196,33.142 295.438 C 34.095 294.591,34.182 294.400,33.614 294.400 C 33.402 294.400,33.016 294.805,32.756 295.300 M371.214 300.671 C 371.222 300.852,371.688 301.540,372.250 302.200 C 373.131 303.236,373.203 303.264,372.772 302.408 C 372.217 301.304,371.192 300.161,371.214 300.671 M54.948 310.192 C 54.617 311.053,54.886 311.243,55.496 310.581 C 55.811 310.239,55.847 309.952,55.593 309.796 C 55.374 309.660,55.083 309.838,54.948 310.192 M40.388 335.622 C 40.146 336.074,40.007 336.622,40.080 336.839 C 40.152 337.057,40.418 336.687,40.671 336.017 C 41.197 334.625,41.039 334.405,40.388 335.622 M360.400 341.800 C 360.400 342.350,360.555 342.800,360.745 342.800 C 360.934 342.800,361.003 342.350,360.898 341.800 C 360.793 341.250,360.638 340.800,360.553 340.800 C 360.469 340.800,360.400 341.250,360.400 341.800 M387.474 341.500 C 387.378 341.665,387.445 342.160,387.622 342.600 C 387.903 343.298,387.947 343.260,387.972 342.300 C 388.000 341.215,387.812 340.914,387.474 341.500 M37.913 352.013 C 37.718 353.338,38.148 353.137,38.582 351.700 C 38.732 351.205,38.682 350.800,38.472 350.800 C 38.262 350.800,38.011 351.346,37.913 352.013 M13.625 382.200 C 13.625 382.420,13.890 382.949,14.213 383.376 C 14.536 383.804,14.800 383.973,14.800 383.753 C 14.800 383.533,14.536 383.004,14.213 382.576 C 13.890 382.149,13.625 381.980,13.625 382.200 M363.625 382.200 C 363.625 382.420,363.890 382.949,364.213 383.376 C 364.536 383.804,364.800 383.973,364.800 383.753 C 364.800 383.533,364.536 383.004,364.213 382.576 C 363.890 382.149,363.625 381.980,363.625 382.200 " stroke="none" fill="currentColor" fill-rule="evenodd"></path><path id="path4" d="M243.407 55.075 C 244.283 55.666,245.237 56.431,245.526 56.775 C 245.993 57.330,246.014 57.323,245.715 56.708 C 245.331 55.922,242.858 54.000,242.229 54.000 C 242.001 54.000,242.531 54.484,243.407 55.075 M139.600 60.800 C 139.093 61.240,138.857 61.600,139.077 61.600 C 139.296 61.600,139.802 61.240,140.200 60.800 C 140.598 60.360,140.834 60.000,140.723 60.000 C 140.613 60.000,140.107 60.360,139.600 60.800 M253.000 91.600 C 253.136 91.820,253.517 92.000,253.847 92.000 C 254.177 92.000,254.336 91.820,254.200 91.600 C 254.064 91.380,253.683 91.200,253.353 91.200 C 253.023 91.200,252.864 91.380,253.000 91.600 M239.029 95.029 C 238.164 95.893,238.241 96.106,239.200 95.507 C 239.640 95.232,240.000 94.871,240.000 94.704 C 240.000 94.243,239.721 94.336,239.029 95.029 M262.800 99.938 C 262.800 100.124,263.153 100.596,263.585 100.987 C 264.353 101.682,264.360 101.674,263.885 100.652 C 263.418 99.645,262.800 99.238,262.800 99.938 M90.612 101.717 C 90.441 102.112,90.413 102.547,90.551 102.684 C 90.957 103.090,91.284 102.520,91.097 101.731 C 90.932 101.033,90.910 101.032,90.612 101.717 M272.283 111.588 C 272.654 112.021,273.038 112.296,273.136 112.198 C 273.374 111.959,272.395 110.800,271.955 110.800 C 271.764 110.800,271.911 111.155,272.283 111.588 M263.870 143.200 C 264.052 143.530,264.296 148.390,264.413 154.000 L 264.627 164.200 264.713 154.176 C 264.788 145.565,264.711 144.044,264.170 143.376 C 263.824 142.949,263.689 142.870,263.870 143.200 M94.000 161.495 C 94.000 161.884,95.614 162.919,95.851 162.682 C 95.947 162.586,95.569 162.210,95.012 161.845 C 94.456 161.480,94.000 161.322,94.000 161.495 M146.816 163.982 C 146.393 164.249,146.594 164.341,147.540 164.314 C 148.398 164.290,148.668 164.163,148.324 163.945 C 147.663 163.526,147.532 163.529,146.816 163.982 M148.253 201.600 C 148.495 201.930,148.774 202.461,148.873 202.780 C 148.989 203.152,149.148 203.207,149.317 202.934 C 149.462 202.699,149.183 202.168,148.697 201.753 C 148.211 201.339,148.012 201.270,148.253 201.600 M251.000 202.000 C 250.602 202.440,250.478 202.800,250.724 202.800 C 250.970 202.800,251.365 202.440,251.600 202.000 C 251.835 201.560,251.960 201.200,251.876 201.200 C 251.792 201.200,251.398 201.560,251.000 202.000 M192.705 225.483 C 193.202 225.579,193.922 225.575,194.305 225.475 C 194.687 225.375,194.280 225.296,193.400 225.301 C 192.520 225.305,192.207 225.387,192.705 225.483 M205.905 225.483 C 206.402 225.579,207.122 225.575,207.505 225.475 C 207.887 225.375,207.480 225.296,206.600 225.301 C 205.720 225.305,205.407 225.387,205.905 225.483 M167.762 276.342 C 168.609 277.295,168.800 277.382,168.800 276.814 C 168.800 276.602,168.395 276.216,167.900 275.956 C 167.005 275.486,167.004 275.488,167.762 276.342 M42.500 285.423 C 41.911 286.063,41.862 286.400,42.357 286.400 C 42.698 286.400,43.337 285.196,43.109 284.983 C 43.049 284.927,42.775 285.125,42.500 285.423 M179.693 288.000 C 180.162 288.751,180.800 289.080,180.800 288.571 C 180.800 288.273,179.725 287.200,179.425 287.200 C 179.298 287.200,179.418 287.560,179.693 288.000 M218.486 289.054 C 217.983 289.574,217.730 290.000,217.924 290.000 C 218.348 290.000,219.797 288.455,219.564 288.251 C 219.474 288.172,218.989 288.533,218.486 289.054 M108.329 291.100 C 114.999 291.161,125.799 291.161,132.329 291.100 C 138.858 291.038,133.400 290.988,120.200 290.988 C 107.000 290.988,101.658 291.038,108.329 291.100 M267.500 291.100 C 274.155 291.161,285.045 291.161,291.700 291.100 C 298.355 291.038,292.910 290.988,279.600 290.988 C 266.290 290.988,260.845 291.038,267.500 291.100 M32.756 295.300 C 32.286 296.195,32.288 296.196,33.142 295.438 C 34.095 294.591,34.182 294.400,33.614 294.400 C 33.402 294.400,33.016 294.805,32.756 295.300 M371.214 300.671 C 371.222 300.852,371.688 301.540,372.250 302.200 C 373.131 303.236,373.203 303.264,372.772 302.408 C 372.217 301.304,371.192 300.161,371.214 300.671 M54.948 310.192 C 54.617 311.053,54.886 311.243,55.496 310.581 C 55.811 310.239,55.847 309.952,55.593 309.796 C 55.374 309.660,55.083 309.838,54.948 310.192 M40.388 335.622 C 40.146 336.074,40.007 336.622,40.080 336.839 C 40.152 337.057,40.418 336.687,40.671 336.017 C 41.197 334.625,41.039 334.405,40.388 335.622 M360.400 341.800 C 360.400 342.350,360.555 342.800,360.745 342.800 C 360.934 342.800,361.003 342.350,360.898 341.800 C 360.793 341.250,360.638 340.800,360.553 340.800 C 360.469 340.800,360.400 341.250,360.400 341.800 M387.474 341.500 C 387.378 341.665,387.445 342.160,387.622 342.600 C 387.903 343.298,387.947 343.260,387.972 342.300 C 388.000 341.215,387.812 340.914,387.474 341.500 M37.913 352.013 C 37.718 353.338,38.148 353.137,38.582 351.700 C 38.732 351.205,38.682 350.800,38.472 350.800 C 38.262 350.800,38.011 351.346,37.913 352.013 M13.625 382.200 C 13.625 382.420,13.890 382.949,14.213 383.376 C 14.536 383.804,14.800 383.973,14.800 383.753 C 14.800 383.533,14.536 383.004,14.213 382.576 C 13.890 382.149,13.625 381.980,13.625 382.200 M363.625 382.200 C 363.625 382.420,363.890 382.949,364.213 383.376 C 364.536 383.804,364.800 383.973,364.800 383.753 C 364.800 383.533,364.536 383.004,364.213 382.576 C 363.890 382.149,363.625 381.980,363.625 382.200 " stroke="none" fill="currentColor" fill-rule="evenodd"></path></g></svg>